<svg viewBox="202.179 613.038 91.842 91.842">
<g>
	<path style="fill:#fb0024;" d="M229.794,701.061c23.252,10.11,50.298-0.543,60.408-23.795
		c10.111-23.252-0.543-50.298-23.795-60.409c-23.252-10.11-50.298,0.544-60.408,23.796
		C195.888,663.905,206.542,690.951,229.794,701.061"/>
	
		<ellipse transform="matrix(0.3987 -0.9171 0.9171 0.3987 -455.1356 623.7288)" style="fill:none;stroke:#FFFFFF;stroke-width:0.606;" cx="248.1" cy="658.96" rx="32.485" ry="32.484"/>
	
		<rect x="224.928" y="621.627" transform="matrix(0.2079 -0.9781 0.9781 0.2079 -448.7134 765.6806)" style="fill:#fb0024;" width="46.963" height="76.539"/>
	
		<ellipse transform="matrix(0.3987 -0.9171 0.9171 0.3987 -455.1352 623.7244)" style="fill:none;stroke:#FFFFFF;stroke-width:0.615;" cx="248.1" cy="658.96" rx="43.624" ry="43.624"/>
	<g>
		<path style="fill:#FFFFFF;" d="M232.124,638.146c0.035-0.166,0.035-0.4-0.037-0.576c-0.042-0.097-0.175-0.347-0.553-0.427
			c-0.308-0.065-0.524,0.024-0.672,0.142c-0.24,0.196-0.314,0.488-0.375,0.772l-0.866,4.078c-0.058,0.271-0.111,0.521-0.003,0.766
			c0.058,0.136,0.21,0.354,0.54,0.424c0.261,0.056,0.54,0.016,0.723-0.143c0.077-0.07,0.224-0.237,0.309-0.639l0.063-0.296
			l1.182,0.251l-0.073,0.343c-0.174,0.816-0.557,1.229-0.817,1.407c-0.308,0.22-0.852,0.4-1.667,0.228
			c-0.78-0.166-1.162-0.581-1.356-0.943c-0.32-0.588-0.187-1.152-0.097-1.577l0.912-4.291c0.116-0.544,0.316-1.144,0.947-1.492
			c0.436-0.253,1.013-0.29,1.45-0.197c0.496,0.105,1.035,0.418,1.316,0.835c0.233,0.358,0.364,0.906,0.241,1.484l-0.121,0.567
			l-1.146-0.243L232.124,638.146z"/>
		<path style="fill:#FFFFFF;" d="M236.127,637.032l-0.753,3.546l0.674,0.144c0.166,0.035,0.334-0.003,0.49-0.156
			c0.198-0.18,0.309-0.465,0.491-1.031l0.24-0.728c0.144-0.439,0.319-0.921,0.739-1.153c0.405-0.222,0.857-0.139,1.165-0.073
			l0.178,0.038l-0.226,1.063l-0.154-0.033c-0.095-0.02-0.237,0.013-0.336,0.065c-0.155,0.091-0.25,0.305-0.421,0.824l-0.253,0.774
			c-0.103,0.313-0.188,0.603-0.354,0.853c-0.106,0.149-0.196,0.229-0.333,0.286l0.367,4.551l-1.289-0.273l-0.249-3.883l-0.957-0.204
			l-0.779,3.664l-1.183-0.251l1.759-8.274L236.127,637.032z"/>
		<path style="fill:#FFFFFF;" d="M241.704,638.218l-1.08,5.082l2.831-3.722l0.2-0.946l1.182,0.251l-1.759,8.274l-1.182-0.251
			l1.081-5.082l-2.831,3.722l-0.201,0.945l-1.182-0.251l1.759-8.274L241.704,638.218z"/>
		<path style="fill:#FFFFFF;" d="M249.367,647.382l-0.497,2.341l-1.122-0.238l0.271-1.276l-3.051-0.648l-0.271,1.276l-1.123-0.238
			l0.497-2.341l0.556,0.118c0.383-0.524,0.732-1.117,1.023-1.847c0.441-1.092,0.926-3.139,1.232-4.58l0.128-0.604l3.215,0.684
			l-1.532,7.211L249.367,647.382z M247.896,640.645l-0.139,0.65c-0.427,2.01-0.801,3.129-1.087,3.834
			c-0.215,0.547-0.45,1.017-0.851,1.562l1.678,0.356l1.319-6.206L247.896,640.645z"/>
		<path style="fill:#FFFFFF;" d="M252.966,640.611l-0.753,3.546l0.673,0.144c0.167,0.035,0.335-0.003,0.49-0.156
			c0.199-0.18,0.31-0.465,0.491-1.031l0.24-0.728c0.144-0.439,0.32-0.921,0.74-1.153c0.405-0.222,0.857-0.139,1.165-0.073
			l0.177,0.038l-0.226,1.063l-0.153-0.033c-0.095-0.02-0.237,0.012-0.336,0.065c-0.155,0.091-0.25,0.305-0.422,0.824l-0.252,0.774
			c-0.103,0.313-0.188,0.603-0.354,0.853c-0.106,0.149-0.197,0.229-0.333,0.286l0.367,4.551l-1.289-0.273l-0.249-3.883l-0.957-0.203
			l-0.779,3.664l-1.183-0.252l1.759-8.274L252.966,640.611z"/>
		<path style="fill:#FFFFFF;" d="M258.369,650.407l-0.013-1.855l-1.514-0.321l-0.768,1.689l-1.182-0.251l3.567-7.89l1.04,0.221
			l0.051,8.659L258.369,650.407z M258.469,644.189l-1.284,3.014l1.253,0.267L258.469,644.189z"/>
		<path style="fill:#FFFFFF;" d="M267.967,651.336l-0.497,2.341l-1.124-0.239l0.271-1.276l-3.049-0.648l-0.271,1.276l-1.123-0.238
			l0.497-2.341l0.556,0.118c0.383-0.524,0.731-1.117,1.022-1.846c0.442-1.093,0.927-3.139,1.233-4.581l0.128-0.603l3.215,0.683
			l-1.532,7.211L267.967,651.336z M266.495,644.599l-0.139,0.65c-0.427,2.009-0.801,3.128-1.086,3.833
			c-0.216,0.547-0.451,1.017-0.852,1.562l1.679,0.356l1.319-6.206L266.495,644.599z"/>
		<path style="fill:#FFFFFF;" d="M269.792,646.46c0.133-0.626,0.309-1.219,0.988-1.63c0.426-0.256,0.953-0.354,1.567-0.223
			c0.615,0.13,1.057,0.435,1.341,0.841c0.455,0.652,0.374,1.266,0.241,1.892l-0.834,3.925c-0.134,0.627-0.31,1.219-0.99,1.631
			c-0.425,0.256-0.951,0.354-1.566,0.223c-0.614-0.131-1.057-0.435-1.342-0.841c-0.454-0.653-0.373-1.266-0.239-1.892
			L269.792,646.46z M272.785,646.911c0.053-0.248,0.082-0.501-0.095-0.773c-0.104-0.158-0.293-0.31-0.589-0.372
			c-0.295-0.063-0.53-0.002-0.688,0.101c-0.272,0.177-0.35,0.42-0.402,0.668l-0.91,4.279c-0.053,0.248-0.081,0.502,0.096,0.774
			c0.103,0.157,0.293,0.309,0.588,0.372c0.296,0.063,0.53,0.001,0.688-0.101c0.272-0.177,0.349-0.421,0.401-0.669L272.785,646.911z"
			/>
	</g>
	<g>
		<path style="fill:#FFFFFF;" d="M212.507,664.579c1.521,1.313,3.844,2.335,5.599,2.708c3.343,0.711,5.696-0.236,6.257-2.87
			c0.573-2.7-1.063-4.459-4.001-5.084c-2.026-0.431-4.064-0.299-5.438,0.185l-1.46-1.263l2.583-12.154l14.99,3.187l-0.876,4.119
			l-10.128-2.153l-0.969,4.558c1.046-0.271,2.589-0.226,3.974,0.068c4.253,0.904,7.316,4.59,6.276,9.485
			c-1.084,5.098-5.412,7.53-11.759,6.181c-2.803-0.596-5.449-1.758-7.399-3.372L212.507,664.579z M215.793,657.586l0.408,0.404
			c1.834-0.493,3.627-0.464,5.585-0.048c3.241,0.688,5.464,3.349,4.731,6.792c-0.797,3.748-3.963,5.368-8.589,4.385
			c-1.418-0.301-3.258-0.938-4.723-1.851l-0.333,0.564c1.574,0.899,3.339,1.557,4.993,1.909c5.064,1.076,8.466-0.813,9.32-4.83
			c0.796-3.747-1.558-6.788-5.271-7.578c-1.789-0.38-3.807-0.35-5.367,0.024l1.766-8.306l10.364,2.203l0.129-0.608l-11.04-2.346
			L215.793,657.586z"/>
		<path style="fill:#FFFFFF;" d="M233.117,662.079c1.471-6.921,6.684-11.354,13.705-9.86c7.022,1.492,9.98,7.661,8.51,14.582
			c-1.471,6.922-6.683,11.354-13.705,9.861C234.605,675.169,231.646,669.001,233.117,662.079z M235.245,662.531
			c-1.271,5.977,1.022,11.122,6.762,12.342c5.74,1.22,9.929-2.548,11.199-8.523s-1.023-11.121-6.764-12.342
			C240.703,652.788,236.516,656.557,235.245,662.531z M235.92,662.675c1.335-6.278,5.768-9.042,10.393-8.059
			s7.553,5.311,6.218,11.589c-1.335,6.28-5.769,9.043-10.394,8.06C237.512,673.282,234.585,668.955,235.92,662.675z
			 M250.403,665.754c1.105-5.199-0.992-8.609-4.471-9.349c-3.477-0.739-6.781,1.522-7.887,6.722s0.994,8.609,4.471,9.349
			C245.995,673.215,249.298,670.953,250.403,665.754z"/>
		<path style="fill:#FFFFFF;" d="M263.903,666.823c-2.903-0.617-4.928-3.376-4.311-6.279s3.589-4.601,6.492-3.983
			s4.929,3.377,4.312,6.279C269.779,665.744,266.807,667.44,263.903,666.823z M259.691,678.666l19.359-19.526l2.343,2.263
			l-19.358,19.527L259.691,678.666z M265.805,657.877c-2.262-0.48-4.321,0.74-4.795,2.969c-0.474,2.228,0.911,4.181,3.173,4.661
			c2.263,0.481,4.321-0.74,4.795-2.968C269.451,660.311,268.067,658.357,265.805,657.877z M265.69,658.417
			c1.924,0.409,3.089,2.068,2.68,3.993c-0.409,1.924-2.148,2.965-4.072,2.557c-1.925-0.409-3.089-2.068-2.68-3.992
			C262.027,659.05,263.766,658.008,265.69,658.417z M262.242,678.785l17.043-17.09l-0.442-0.412l-17.042,17.091L262.242,678.785z
			 M264.57,663.684c1.081,0.23,2.139-0.428,2.383-1.575c0.244-1.148-0.455-2.179-1.536-2.408c-1.08-0.229-2.137,0.428-2.381,1.576
			C262.792,662.424,263.49,663.454,264.57,663.684z M275.169,683.545c-2.903-0.617-4.928-3.377-4.311-6.28s3.589-4.601,6.492-3.983
			c2.904,0.617,4.928,3.377,4.311,6.28S278.073,684.162,275.169,683.545z M277.071,674.598c-2.262-0.48-4.321,0.74-4.795,2.969
			s0.911,4.181,3.173,4.662c2.262,0.48,4.321-0.74,4.795-2.969C280.718,677.032,279.333,675.078,277.071,674.598z M276.956,675.139
			c1.925,0.408,3.09,2.068,2.681,3.992s-2.147,2.967-4.072,2.557c-1.924-0.408-3.09-2.067-2.681-3.992
			C273.293,675.771,275.032,674.729,276.956,675.139z M275.837,680.405c1.08,0.229,2.138-0.429,2.381-1.576
			c0.244-1.147-0.454-2.179-1.534-2.408s-2.138,0.428-2.382,1.576C274.059,679.145,274.757,680.176,275.837,680.405z"/>
	</g>
</g>
</svg>
