<svg viewBox="98.179 506.372 91.842 91.842">
<g>
	<path style="fill:#fb0024;" d="M125.794,594.395c23.252,10.11,50.298-0.543,60.408-23.795
		c10.111-23.252-0.543-50.298-23.795-60.409c-23.252-10.11-50.298,0.544-60.408,23.796
		C91.888,557.239,102.542,584.285,125.794,594.395"/>
	
		<ellipse transform="matrix(0.3987 -0.9171 0.9171 0.3987 -419.8464 464.22)" style="fill:none;stroke:#FFFFFF;stroke-width:0.606;" cx="144.1" cy="552.293" rx="32.485" ry="32.484"/>
	
		<rect x="120.928" y="514.96" transform="matrix(0.2079 -0.9781 0.9781 0.2079 -426.7551 579.4634)" style="fill:#fb0024;" width="46.963" height="76.539"/>
	
		<ellipse transform="matrix(0.3987 -0.9171 0.9171 0.3987 -419.8457 464.2164)" style="fill:none;stroke:#FFFFFF;stroke-width:0.615;" cx="144.1" cy="552.293" rx="43.624" ry="43.624"/>
	<g>
		<path style="fill:#FFFFFF;" d="M128.125,531.479c0.035-0.166,0.035-0.4-0.038-0.576c-0.042-0.096-0.175-0.346-0.553-0.426
			c-0.308-0.066-0.524,0.023-0.672,0.141c-0.24,0.197-0.314,0.488-0.375,0.773l-0.867,4.078c-0.058,0.271-0.111,0.52-0.002,0.766
			c0.058,0.135,0.209,0.354,0.54,0.424c0.261,0.055,0.541,0.016,0.723-0.143c0.077-0.07,0.224-0.238,0.309-0.639l0.063-0.297
			l1.182,0.252l-0.073,0.342c-0.173,0.816-0.557,1.229-0.817,1.408c-0.307,0.219-0.852,0.4-1.667,0.227
			c-0.78-0.166-1.162-0.58-1.356-0.943c-0.32-0.588-0.187-1.152-0.096-1.576l0.912-4.291c0.116-0.545,0.316-1.145,0.947-1.492
			c0.436-0.254,1.013-0.291,1.451-0.197c0.496,0.105,1.035,0.418,1.316,0.834c0.233,0.359,0.364,0.906,0.241,1.484l-0.121,0.568
			l-1.146-0.244L128.125,531.479z"/>
		<path style="fill:#FFFFFF;" d="M132.127,530.365l-0.753,3.547l0.674,0.143c0.166,0.035,0.334-0.002,0.49-0.156
			c0.198-0.18,0.309-0.465,0.492-1.031l0.24-0.727c0.144-0.439,0.319-0.922,0.739-1.154c0.405-0.221,0.857-0.139,1.165-0.072
			l0.178,0.037l-0.226,1.064l-0.154-0.033c-0.095-0.02-0.237,0.012-0.335,0.064c-0.155,0.092-0.25,0.305-0.421,0.824l-0.252,0.775
			c-0.103,0.313-0.189,0.602-0.354,0.852c-0.106,0.15-0.197,0.229-0.333,0.287l0.368,4.551l-1.289-0.273l-0.25-3.883l-0.957-0.205
			l-0.779,3.664l-1.183-0.25l1.759-8.275L132.127,530.365z"/>
		<path style="fill:#FFFFFF;" d="M137.705,531.551l-1.081,5.082l2.831-3.721l0.201-0.947l1.182,0.252l-1.759,8.273l-1.182-0.25
			l1.081-5.082l-2.831,3.721l-0.201,0.945l-1.182-0.25l1.759-8.275L137.705,531.551z"/>
		<path style="fill:#FFFFFF;" d="M145.367,540.715l-0.497,2.342l-1.122-0.238l0.271-1.277l-3.051-0.648l-0.271,1.277l-1.123-0.238
			l0.497-2.342l0.556,0.119c0.383-0.525,0.732-1.117,1.023-1.848c0.441-1.092,0.926-3.139,1.233-4.58l0.128-0.604l3.215,0.684
			l-1.533,7.211L145.367,540.715z M143.896,533.979l-0.138,0.65c-0.427,2.01-0.801,3.129-1.087,3.834
			c-0.214,0.547-0.45,1.016-0.85,1.561l1.678,0.357l1.319-6.207L143.896,533.979z"/>
		<path style="fill:#FFFFFF;" d="M148.966,533.945l-0.753,3.545l0.673,0.145c0.167,0.035,0.335-0.004,0.49-0.156
			c0.199-0.18,0.31-0.465,0.492-1.031l0.24-0.729c0.144-0.439,0.32-0.92,0.74-1.152c0.405-0.223,0.857-0.139,1.165-0.074
			l0.177,0.039l-0.226,1.063l-0.153-0.033c-0.095-0.02-0.237,0.012-0.335,0.066c-0.155,0.09-0.25,0.305-0.422,0.824l-0.251,0.773
			c-0.103,0.313-0.189,0.604-0.354,0.854c-0.106,0.148-0.198,0.229-0.333,0.285l0.368,4.551l-1.289-0.273l-0.25-3.883l-0.957-0.203
			l-0.779,3.664l-1.183-0.252l1.759-8.273L148.966,533.945z"/>
		<path style="fill:#FFFFFF;" d="M154.37,543.74l-0.013-1.855l-1.514-0.32l-0.768,1.689l-1.182-0.252l3.567-7.889l1.04,0.221
			l0.051,8.658L154.37,543.74z M154.469,537.523l-1.284,3.014l1.253,0.266L154.469,537.523z"/>
		<path style="fill:#FFFFFF;" d="M163.967,544.67l-0.497,2.34l-1.124-0.238l0.271-1.277l-3.049-0.648l-0.271,1.277l-1.123-0.238
			l0.497-2.342l0.556,0.119c0.383-0.525,0.731-1.117,1.022-1.846c0.442-1.094,0.927-3.139,1.234-4.582l0.128-0.602l3.215,0.682
			l-1.533,7.211L163.967,544.67z M162.495,537.932l-0.138,0.65c-0.427,2.01-0.801,3.129-1.086,3.834
			c-0.215,0.547-0.451,1.016-0.851,1.561l1.679,0.357l1.319-6.207L162.495,537.932z"/>
		<path style="fill:#FFFFFF;" d="M165.792,539.793c0.133-0.625,0.309-1.219,0.989-1.629c0.426-0.256,0.953-0.354,1.567-0.223
			c0.615,0.129,1.057,0.434,1.341,0.84c0.455,0.652,0.374,1.266,0.241,1.893l-0.834,3.924c-0.133,0.627-0.309,1.219-0.99,1.631
			c-0.425,0.256-0.952,0.354-1.567,0.223c-0.614-0.131-1.056-0.434-1.341-0.84c-0.454-0.654-0.373-1.266-0.24-1.893L165.792,539.793
			z M168.785,540.244c0.053-0.248,0.082-0.5-0.095-0.773c-0.104-0.158-0.293-0.309-0.589-0.371c-0.295-0.064-0.53-0.002-0.688,0.1
			c-0.272,0.178-0.35,0.42-0.402,0.668l-0.91,4.279c-0.053,0.248-0.081,0.502,0.096,0.775c0.102,0.156,0.292,0.309,0.587,0.371
			c0.296,0.063,0.53,0.002,0.689-0.1c0.272-0.178,0.349-0.422,0.401-0.67L168.785,540.244z"/>
	</g>
	<g>
		<path style="fill:#FFFFFF;" d="M114.81,564.51l-5.233-1.112l12.385-17.763l-11.444-2.433l0.875-4.118l16.813,3.573l-0.66,3.105
			L114.81,564.51z M125.825,544.727l0.15-0.709l-13.1-2.784l-0.129,0.607l12.424,2.642l-12.299,17.852l0.743,0.158L125.825,544.727z
			"/>
		<path style="fill:#FFFFFF;" d="M130.205,562.807c1.221,0.895,2.763,1.611,4.384,1.955c3.882,0.825,6.294-1.062,7.289-4.908
			c-1.416,1.182-3.799,1.769-6.196,1.26c-4.152-0.883-7.714-4.71-6.588-10.011c1.069-5.03,5.851-7.438,10.746-6.396
			c3.983,0.847,7.443,3.664,7.92,8.388c0.157,1.586,0.081,3.44-0.357,5.5c-0.373,1.756-0.874,3.449-1.521,4.828
			c-2.133,4.558-6.275,6.782-12.015,5.563c-2.06-0.438-4.363-1.387-5.966-2.645L130.205,562.807z M130.554,565.81
			c1.103,0.623,2.478,1.127,3.693,1.386c4.456,0.947,7.881-0.725,9.688-4.575c0.569-1.185,1.01-2.432,1.369-4.12
			c0.395-1.856,0.5-3.846,0.322-5.33c-0.426-3.972-3.102-5.987-5.938-6.59c-3.681-0.782-7.614,0.957-8.468,4.975
			c-0.804,3.781,1.695,7.136,5.679,7.982c3.679,0.782,7.061-1.182,8.152-4.16c-0.082,1.218-0.286,2.339-0.501,3.352
			c-0.273,1.283-0.699,2.463-1.269,3.646c-1.903,3.972-5.158,5.009-8.771,4.241c-1.418-0.302-2.624-0.77-3.632-1.337L130.554,565.81
			z M139.559,547.188c3.274,0.695,5.934,3.625,5.194,7.103c-0.746,3.511-4.432,5.41-7.706,4.714s-5.955-3.524-5.158-7.271
			C132.686,547.984,136.284,546.491,139.559,547.188z M139.186,548.943c-2.229-0.474-4.632,0.709-5.17,3.24
			c-0.539,2.532,1.177,4.591,3.405,5.064s4.632-0.709,5.171-3.241C143.129,551.475,141.414,549.417,139.186,548.943z"/>
		<path style="fill:#FFFFFF;" d="M156.481,559.218c-2.904-0.617-4.929-3.376-4.312-6.28c0.617-2.902,3.589-4.601,6.493-3.983
			c2.902,0.617,4.928,3.377,4.311,6.28S159.384,559.834,156.481,559.218z M152.27,571.061l19.359-19.527l2.342,2.263l-19.358,19.527
			L152.27,571.061z M158.383,550.271c-2.263-0.48-4.321,0.74-4.795,2.969c-0.474,2.228,0.911,4.181,3.173,4.662
			c2.262,0.48,4.32-0.74,4.793-2.969S160.645,550.752,158.383,550.271z M158.269,550.812c1.924,0.408,3.088,2.067,2.679,3.992
			s-2.147,2.966-4.071,2.557c-1.925-0.409-3.09-2.067-2.681-3.992C154.604,551.444,156.344,550.402,158.269,550.812z M154.82,571.18
			l17.042-17.091l-0.442-0.411l-17.042,17.091L154.82,571.18z M157.149,556.078c1.08,0.229,2.137-0.429,2.381-1.576
			c0.244-1.148-0.455-2.179-1.535-2.408c-1.081-0.229-2.138,0.428-2.382,1.576C155.369,554.817,156.068,555.848,157.149,556.078z
			 M167.747,575.938c-2.902-0.617-4.928-3.376-4.311-6.279s3.59-4.602,6.492-3.984c2.904,0.617,4.929,3.377,4.312,6.28
			S170.651,576.556,167.747,575.938z M169.648,566.991c-2.262-0.48-4.321,0.741-4.794,2.969c-0.474,2.229,0.911,4.182,3.172,4.662
			s4.322-0.74,4.795-2.968C173.295,569.426,171.91,567.473,169.648,566.991z M169.534,567.532c1.925,0.409,3.09,2.068,2.681,3.992
			c-0.409,1.925-2.148,2.967-4.073,2.558c-1.924-0.409-3.089-2.068-2.68-3.992C165.871,568.165,167.61,567.123,169.534,567.532z
			 M168.414,572.799c1.08,0.23,2.138-0.428,2.381-1.575c0.244-1.148-0.455-2.179-1.535-2.409c-1.08-0.229-2.137,0.429-2.381,1.576
			C166.636,571.538,167.334,572.569,168.414,572.799z"/>
	</g>
</g>
</svg>
