<svg viewBox="316.512 391.038 91.842 91.842">
<g>
	<path style="fill:#fb0024;" d="M344.127,479.061c23.252,10.11,50.298-0.543,60.408-23.795
		c10.111-23.252-0.543-50.298-23.795-60.409c-23.252-10.11-50.298,0.544-60.408,23.796
		C310.221,441.905,320.875,468.951,344.127,479.061"/>
	
		<ellipse transform="matrix(0.3987 -0.9171 0.9171 0.3987 -182.8036 595.1003)" style="fill:none;stroke:#FFFFFF;stroke-width:0.606;" cx="362.433" cy="436.96" rx="32.485" ry="32.484"/>
	
		<rect x="339.262" y="399.627" transform="matrix(0.2079 -0.9781 0.9781 0.2079 -141.002 701.6712)" style="fill:#fb0024;" width="46.963" height="76.539"/>
	
		<ellipse transform="matrix(0.3987 -0.9171 0.9171 0.3987 -182.8044 595.0969)" style="fill:none;stroke:#FFFFFF;stroke-width:0.615;" cx="362.433" cy="436.96" rx="43.624" ry="43.624"/>
	<g>
		<path style="fill:#FFFFFF;" d="M346.458,416.146c0.035-0.166,0.035-0.4-0.038-0.576c-0.042-0.097-0.175-0.347-0.553-0.427
			c-0.308-0.065-0.524,0.024-0.672,0.142c-0.239,0.196-0.314,0.488-0.374,0.772l-0.867,4.078c-0.058,0.271-0.11,0.521-0.002,0.766
			c0.058,0.136,0.209,0.354,0.539,0.424c0.261,0.056,0.541,0.016,0.723-0.143c0.077-0.07,0.224-0.237,0.31-0.639l0.063-0.296
			l1.182,0.251l-0.073,0.343c-0.173,0.816-0.557,1.229-0.817,1.407c-0.307,0.22-0.852,0.4-1.667,0.228
			c-0.78-0.166-1.161-0.581-1.356-0.943c-0.319-0.588-0.187-1.152-0.096-1.577l0.912-4.291c0.115-0.544,0.316-1.144,0.946-1.492
			c0.436-0.253,1.014-0.29,1.451-0.197c0.496,0.105,1.034,0.418,1.316,0.835c0.232,0.358,0.363,0.906,0.24,1.484l-0.12,0.567
			l-1.146-0.243L346.458,416.146z"/>
		<path style="fill:#FFFFFF;" d="M350.461,415.032l-0.754,3.546l0.674,0.144c0.166,0.035,0.334-0.003,0.49-0.156
			c0.198-0.18,0.31-0.465,0.492-1.031l0.24-0.728c0.144-0.439,0.319-0.921,0.739-1.153c0.405-0.222,0.856-0.139,1.164-0.073
			l0.178,0.038l-0.226,1.063l-0.154-0.033c-0.095-0.02-0.237,0.013-0.335,0.065c-0.155,0.091-0.251,0.305-0.422,0.824l-0.252,0.774
			c-0.104,0.313-0.189,0.603-0.354,0.853c-0.106,0.149-0.197,0.229-0.334,0.286l0.368,4.551l-1.289-0.273l-0.25-3.883l-0.957-0.204
			l-0.778,3.664l-1.183-0.251l1.759-8.274L350.461,415.032z"/>
		<path style="fill:#FFFFFF;" d="M356.038,416.218l-1.081,5.082l2.831-3.722l0.201-0.946l1.182,0.251l-1.759,8.274l-1.182-0.251
			l1.08-5.082l-2.83,3.722l-0.201,0.945l-1.182-0.251l1.759-8.274L356.038,416.218z"/>
		<path style="fill:#FFFFFF;" d="M363.7,425.382l-0.497,2.341l-1.122-0.238l0.271-1.276l-3.051-0.648l-0.271,1.276l-1.123-0.238
			l0.497-2.341l0.556,0.118c0.383-0.524,0.732-1.117,1.023-1.847c0.441-1.092,0.927-3.139,1.233-4.58l0.128-0.604l3.215,0.684
			l-1.533,7.211L363.7,425.382z M362.229,418.645l-0.138,0.65c-0.428,2.01-0.801,3.129-1.088,3.834
			c-0.214,0.547-0.449,1.017-0.85,1.562l1.678,0.356l1.318-6.206L362.229,418.645z"/>
		<path style="fill:#FFFFFF;" d="M367.3,418.611l-0.754,3.546l0.673,0.144c0.167,0.035,0.335-0.003,0.49-0.156
			c0.199-0.18,0.311-0.465,0.492-1.031l0.24-0.728c0.144-0.439,0.32-0.921,0.74-1.153c0.405-0.222,0.856-0.139,1.164-0.073
			l0.177,0.038l-0.226,1.063l-0.153-0.033c-0.095-0.02-0.237,0.012-0.335,0.065c-0.155,0.091-0.251,0.305-0.423,0.824l-0.251,0.774
			c-0.104,0.313-0.189,0.603-0.354,0.853c-0.106,0.149-0.198,0.229-0.334,0.286l0.368,4.551l-1.289-0.273l-0.25-3.883l-0.957-0.203
			l-0.778,3.664l-1.183-0.252l1.759-8.274L367.3,418.611z"/>
		<path style="fill:#FFFFFF;" d="M372.703,428.407l-0.013-1.855l-1.514-0.321l-0.768,1.689l-1.182-0.251l3.567-7.89l1.04,0.221
			l0.051,8.659L372.703,428.407z M372.802,422.189l-1.283,3.014l1.253,0.267L372.802,422.189z"/>
		<path style="fill:#FFFFFF;" d="M382.3,429.336l-0.497,2.341l-1.124-0.239l0.271-1.276l-3.049-0.648l-0.271,1.276l-1.123-0.238
			l0.497-2.341l0.556,0.118c0.383-0.524,0.731-1.117,1.022-1.846c0.442-1.093,0.928-3.139,1.234-4.581l0.128-0.603l3.215,0.683
			l-1.533,7.211L382.3,429.336z M380.828,422.599l-0.138,0.65c-0.428,2.009-0.801,3.128-1.087,3.833
			c-0.215,0.547-0.45,1.017-0.851,1.562l1.679,0.356l1.318-6.206L380.828,422.599z"/>
		<path style="fill:#FFFFFF;" d="M384.125,424.46c0.134-0.626,0.309-1.219,0.989-1.63c0.426-0.256,0.953-0.354,1.567-0.223
			c0.615,0.13,1.057,0.435,1.341,0.841c0.454,0.652,0.374,1.266,0.24,1.892l-0.834,3.925c-0.133,0.627-0.309,1.219-0.989,1.631
			c-0.425,0.256-0.952,0.354-1.567,0.223c-0.614-0.131-1.056-0.435-1.341-0.841c-0.454-0.653-0.373-1.266-0.24-1.892L384.125,424.46
			z M387.118,424.911c0.053-0.248,0.082-0.501-0.095-0.773c-0.104-0.158-0.293-0.31-0.589-0.372
			c-0.295-0.063-0.53-0.002-0.688,0.101c-0.272,0.177-0.35,0.42-0.402,0.668l-0.909,4.279c-0.053,0.248-0.081,0.502,0.096,0.774
			c0.102,0.157,0.292,0.309,0.587,0.372c0.296,0.063,0.53,0.001,0.689-0.101c0.272-0.177,0.349-0.421,0.401-0.669L387.118,424.911z"
			/>
	</g>
	<g>
		<path style="fill:#FFFFFF;" d="M344.721,434.102c-0.502,2.363-2.15,3.813-4.047,4.433c2.398,1.497,3.588,3.868,3.042,6.434
			c-0.875,4.119-5.705,6.092-11.376,4.886c-5.673-1.205-9.282-4.972-8.407-9.091c0.546-2.565,2.597-4.247,5.397-4.64
			c-1.48-1.338-2.397-3.332-1.895-5.695c0.817-3.849,5.035-6.094,10.1-5.018S345.539,430.253,344.721,434.102z M329.396,431.161
			c-0.539,2.532,0.936,4.893,3.881,5.978c-4.056-0.509-6.629,1.308-7.203,4.009c-0.668,3.14,2.121,5.955,6.646,6.917
			c4.523,0.962,8.217-0.477,8.884-3.616c0.574-2.701-1.039-5.407-4.95-6.592c3.131,0.206,5.438-1.35,5.977-3.882
			c0.76-3.578-1.594-5.949-5.476-6.774C333.271,426.375,330.156,427.583,329.396,431.161z M326.749,441.291
			c0.632-2.971,3.485-4.446,8.146-3.456c4.658,0.99,6.666,3.499,6.034,6.47c-0.56,2.633-3.758,4.07-8.079,3.152
			C328.527,446.538,326.189,443.924,326.749,441.291z M338.83,443.718c0.359-1.688-1.252-3.406-4.323-4.06
			c-3.073-0.653-5.243,0.262-5.603,1.949c-0.358,1.688,1.252,3.407,4.326,4.061C336.301,446.32,338.472,445.405,338.83,443.718z
			 M330.07,431.305c0.718-3.376,3.545-4.222,6.955-3.497s5.647,2.647,4.93,6.023c-0.574,2.7-3.557,4.114-6.932,3.396
			C331.646,436.51,329.496,434.006,330.07,431.305z M339.802,433.338c0.366-1.722-0.963-3.274-3.156-3.74
			c-2.195-0.467-4.04,0.411-4.406,2.133c-0.366,1.723,0.962,3.274,3.157,3.741C337.59,435.938,339.436,435.061,339.802,433.338z"/>
		<path style="fill:#FFFFFF;" d="M346.957,440.187c1.471-6.921,6.684-11.353,13.705-9.86c7.023,1.492,9.98,7.662,8.509,14.582
			c-1.471,6.922-6.682,11.354-13.704,9.861S345.486,447.108,346.957,440.187z M349.084,440.639
			c-1.27,5.977,1.023,11.122,6.764,12.342c5.738,1.22,9.928-2.548,11.197-8.523c1.271-5.976-1.023-11.121-6.763-12.342
			C354.543,430.896,350.354,434.664,349.084,440.639z M349.76,440.782c1.335-6.278,5.768-9.042,10.393-8.059
			s7.553,5.311,6.218,11.59s-5.769,9.042-10.394,8.06C351.351,451.39,348.426,447.063,349.76,440.782z M364.242,443.861
			c1.105-5.199-0.992-8.609-4.47-9.348c-3.478-0.739-6.781,1.522-7.887,6.721c-1.104,5.199,0.993,8.61,4.472,9.35
			C359.834,451.322,363.137,449.061,364.242,443.861z"/>
		<path style="fill:#FFFFFF;" d="M377.743,444.932c-2.904-0.617-4.929-3.377-4.312-6.28s3.589-4.601,6.493-3.983
			c2.902,0.617,4.928,3.377,4.311,6.28S380.646,445.548,377.743,444.932z M373.531,456.774l19.359-19.527l2.342,2.263
			l-19.358,19.527L373.531,456.774z M379.645,435.984c-2.262-0.48-4.321,0.74-4.795,2.969c-0.474,2.228,0.912,4.181,3.174,4.662
			c2.262,0.48,4.32-0.74,4.794-2.969S381.906,436.465,379.645,435.984z M379.53,436.525c1.924,0.408,3.089,2.067,2.68,3.992
			c-0.409,1.924-2.148,2.966-4.072,2.557c-1.925-0.409-3.09-2.068-2.681-3.992S377.605,436.115,379.53,436.525z M376.082,456.894
			l17.042-17.091l-0.441-0.412l-17.042,17.091L376.082,456.894z M378.41,441.791c1.08,0.23,2.138-0.428,2.382-1.575
			c0.244-1.148-0.454-2.179-1.534-2.408c-1.082-0.229-2.138,0.428-2.382,1.576C376.632,440.531,377.33,441.562,378.41,441.791z
			 M389.008,461.652c-2.902-0.617-4.928-3.377-4.311-6.279c0.617-2.904,3.59-4.602,6.492-3.984c2.904,0.617,4.93,3.377,4.313,6.28
			S391.912,462.27,389.008,461.652z M390.91,452.705c-2.262-0.48-4.32,0.741-4.793,2.969c-0.475,2.229,0.909,4.181,3.171,4.662
			c2.263,0.48,4.321-0.74,4.796-2.969C394.557,455.14,393.173,453.186,390.91,452.705z M390.795,453.246
			c1.926,0.409,3.09,2.068,2.682,3.992c-0.41,1.925-2.148,2.967-4.073,2.558c-1.924-0.409-3.089-2.068-2.679-3.993
			C387.133,453.879,388.871,452.837,390.795,453.246z M389.676,458.513c1.081,0.229,2.139-0.429,2.383-1.576
			s-0.455-2.179-1.536-2.408c-1.08-0.229-2.138,0.429-2.382,1.576C387.897,457.252,388.596,458.283,389.676,458.513z"/>
	</g>
</g>
</svg>
