<svg width="197" height="50" viewBox="0 0 197 50" fill="none" xmlns="http://www.w3.org/2000/svg">
<path d="M0 0V50H187.963L197 25L187.963 0H0Z" fill="#1E398D"/>
<path d="M152.306 12.4857H131.834V18.7428H138.75V37.4857H145.42V18.7428H152.306V12.4857Z" fill="#FFD200"/>
<path d="M122.397 21.3261H112.96V12.4857H106.259V21.3261H104.292V27.5832H106.259V37.4857H112.96V27.5832H122.397V37.4857H129.098V12.4857H122.397V21.3261Z" fill="#FFD200"/>
<path d="M88.9533 27.5832H101.556V21.3261H88.9533V18.7428H101.925V12.4857H82.2522V37.4857H102.325V31.2285H88.9533V27.5832Z" fill="#FFD200"/>
<path d="M52.7122 37.4856H59.8128L66.6368 18.7428H72.0161V37.4856H79.086V12.5143H61.7801L52.7122 37.4856Z" fill="#FFD200"/>
<path d="M166.876 12.5143H158.607L154.488 23.9093H149.97V30.1378H152.244L149.57 37.4856H156.271L158.915 30.1378H166.569L169.243 37.4856H175.944L166.876 12.5143ZM161.189 23.9093L162.757 19.5752L164.325 23.9093H161.189Z" fill="#FFD200"/>
<path d="M48.7776 16.0735C48.501 16.0161 51.4826 14.667 51.4826 14.093C51.5134 12.8014 48.501 11.7394 45.3656 11.7968C45.089 11.7968 45.3041 10.3903 44.6279 9.04131C44.1053 8.23764 43.9824 8.06542 40.8163 9.21353C40.4474 8.03672 38.9105 4.36278 35.9903 7.89321C35.4985 7.34786 35.1604 6.60159 34.2382 6.22845C33.9615 6.40067 33.3775 7.03213 32.8242 7.8645C32.1479 7.49137 30.7647 6.65899 29.5044 6.80251C29.2892 6.94602 29.2585 7.66359 29.1355 8.75429C28.8896 8.81169 27.1683 8.23764 25.8158 8.58207C25.7543 8.78299 26.3691 10.0459 26.7994 10.62C25.8465 10.5626 24.1251 11.0792 23.664 11.481C23.6948 11.7107 23.7255 12.4569 25.785 13.9782C24.6169 14.2939 23.5718 15.2124 23.5411 15.442C23.3259 16.7049 26.0002 18.0539 26.6764 18.4271C26.0002 19.5465 25.5084 21.0964 25.8158 21.6992C27.1683 22.7038 28.7359 22.876 29.904 22.7612C29.7811 23.0482 29.7196 23.3065 29.7196 23.45C29.7196 23.5074 29.6888 23.5361 29.6888 23.5936C29.6581 23.8806 29.4737 24.3685 29.3815 24.5407C29.2585 24.7991 29.2585 24.9139 29.2585 25.0574C29.32 25.6027 30.7647 26.062 31.8406 26.062C32.0557 26.062 32.6398 26.062 32.9164 26.0333C34.2382 25.8324 35.0374 25.574 35.56 25.2296C35.7444 25.1148 35.8673 25 35.9903 24.9139C36.4514 25.7175 37.6195 27.0953 40.5396 28.2147C40.97 27.9564 41.9536 26.2916 41.9844 26.1194C42.3225 26.4925 44.5357 27.9277 46.3185 27.6119C47.1177 27.0092 46.9948 24.2537 46.9948 24.2537C46.9948 24.2537 48.7162 24.8565 49.9457 24.7417C50.3146 24.713 50.8371 24.6843 51.0216 24.1963C51.1138 24.0241 51.206 23.163 50.9908 22.4454C50.7449 21.527 49.5154 20.4937 49.5154 20.465C49.5154 20.4363 51.6056 20.2066 52.7122 18.915C52.8659 18.2549 50.5605 16.5614 48.7776 16.0735ZM44.4435 20.3502L43.3369 20.5798L43.2139 21.4409L41.9536 21.3834L41.4311 22.101L40.14 21.7566L39.2793 22.2445L38.0805 21.6418L36.9739 21.8714L35.9903 21.0964L34.6993 21.0103L34.023 20.0918L32.732 19.7187L32.4553 18.8002L31.2565 18.1975L31.3795 17.3364L30.3958 16.5327L30.9184 15.8151L30.2729 14.8967L31.1336 14.4087L30.8569 13.4615L31.9635 13.2319L32.0865 12.3708L33.3468 12.4282L33.8693 11.7107L35.1604 12.0551L36.021 11.5671L37.2198 12.1699L38.3572 11.9403L39.3408 12.7153L40.6011 12.8014L41.2774 13.6911L42.5684 14.0643L42.845 14.9828L44.0439 15.5855L43.9209 16.4466L44.9045 17.2503L44.4127 17.9678L45.0582 18.8863L44.2283 19.3743L44.4435 20.3502Z" fill="#FFD200"/>
<path d="M45.212 33.9265C41.3389 30.9414 38.265 33.1515 37.5273 33.5247C36.267 34.2709 35.4063 34.9885 34.7915 35.6774C35.1604 33.9839 35.7444 31.5729 35.8981 30.6831C36.1133 29.4776 36.6666 26.1194 35.8981 25.7462C35.683 25.6888 35.6522 25.6601 35.5907 26.349C35.5907 26.349 35.4985 27.698 34.3305 30.9414C33.8694 32.434 33.562 33.1802 33.2853 33.8978C32.9165 32.6349 31.8714 31.0849 29.4123 29.5063C28.6745 29.1044 25.6006 26.6647 21.7276 29.9655C21.3894 30.31 21.0513 30.8553 21.912 31.3433C22.7727 31.8312 23.0493 32.1182 23.2645 32.721C23.4797 33.3237 24.4018 35.3903 27.5372 35.6199C30.734 35.8496 31.3795 36.2801 31.9021 36.6819C31.9021 36.6819 32.2095 36.9403 32.4861 37.0838C32.4861 37.1412 32.4554 37.2273 32.4554 37.2847C32.4554 37.2847 31.9943 41.0734 33.0394 42.5373C34.2075 44.1446 35.4063 43.6854 35.4063 43.6854C35.4063 43.6854 34.6071 42.566 34.3919 40.4707C34.6993 40.3272 35.0682 40.0402 35.0682 40.0402C35.7444 39.5522 36.2363 39.2939 39.4331 39.0643C42.5685 38.8633 43.4906 36.969 43.7058 36.4523C43.921 35.907 44.1976 35.6486 45.0276 35.1894C45.8882 34.7589 45.5501 34.2422 45.212 33.9265ZM22.9264 30.5396C27.9675 29.6785 30.7955 32.4053 31.9328 34.3857C27.7524 30.4535 22.9264 30.5396 22.9264 30.5396ZM34.9145 37.9162C36.0826 36.1366 38.388 33.7543 43.921 34.4144C43.921 34.4144 37.4965 35.132 34.9145 37.9162Z" fill="#49A942"/>
</svg>
