<svg viewBox="202.179 506.372 91.842 91.842">
<g>
	<path style="fill:#fb0024;" d="M229.794,594.395c23.252,10.11,50.298-0.543,60.408-23.795
		c10.111-23.252-0.543-50.298-23.795-60.409c-23.252-10.11-50.298,0.544-60.408,23.796
		C195.888,557.239,206.542,584.285,229.794,594.395"/>
	
		<ellipse transform="matrix(0.3987 -0.9171 0.9171 0.3987 -357.3155 559.5946)" style="fill:none;stroke:#FFFFFF;stroke-width:0.606;" cx="248.1" cy="552.293" rx="32.485" ry="32.484"/>
	
		<rect x="224.928" y="514.96" transform="matrix(0.2079 -0.9781 0.9781 0.2079 -344.3776 681.1909)" style="fill:#fb0024;" width="46.963" height="76.539"/>
	
		<ellipse transform="matrix(0.3987 -0.9171 0.9171 0.3987 -357.3154 559.5908)" style="fill:none;stroke:#FFFFFF;stroke-width:0.615;" cx="248.1" cy="552.293" rx="43.624" ry="43.624"/>
	<g>
		<path style="fill:#FFFFFF;" d="M232.124,531.479c0.035-0.166,0.035-0.4-0.037-0.576c-0.042-0.096-0.175-0.346-0.553-0.426
			c-0.308-0.066-0.524,0.023-0.672,0.141c-0.24,0.197-0.314,0.488-0.375,0.773l-0.866,4.078c-0.058,0.271-0.111,0.52-0.003,0.766
			c0.058,0.135,0.21,0.354,0.54,0.424c0.261,0.055,0.54,0.016,0.723-0.143c0.077-0.07,0.224-0.238,0.309-0.639l0.063-0.297
			l1.182,0.252l-0.073,0.342c-0.174,0.816-0.557,1.229-0.817,1.408c-0.308,0.219-0.852,0.4-1.667,0.227
			c-0.78-0.166-1.162-0.58-1.356-0.943c-0.32-0.588-0.187-1.152-0.097-1.576l0.912-4.291c0.116-0.545,0.316-1.145,0.947-1.492
			c0.436-0.254,1.013-0.291,1.45-0.197c0.496,0.105,1.035,0.418,1.316,0.834c0.233,0.359,0.364,0.906,0.241,1.484l-0.121,0.568
			l-1.146-0.244L232.124,531.479z"/>
		<path style="fill:#FFFFFF;" d="M236.127,530.365l-0.753,3.547l0.674,0.143c0.166,0.035,0.334-0.002,0.49-0.156
			c0.198-0.18,0.309-0.465,0.491-1.031l0.24-0.727c0.144-0.439,0.319-0.922,0.739-1.154c0.405-0.221,0.857-0.139,1.165-0.072
			l0.178,0.037l-0.226,1.064l-0.154-0.033c-0.095-0.02-0.237,0.012-0.336,0.064c-0.155,0.092-0.25,0.305-0.421,0.824l-0.253,0.775
			c-0.103,0.313-0.188,0.602-0.354,0.852c-0.106,0.15-0.196,0.229-0.333,0.287l0.367,4.551l-1.289-0.273l-0.249-3.883l-0.957-0.205
			l-0.779,3.664l-1.183-0.25l1.759-8.275L236.127,530.365z"/>
		<path style="fill:#FFFFFF;" d="M241.704,531.551l-1.08,5.082l2.831-3.721l0.2-0.947l1.182,0.252l-1.759,8.273l-1.182-0.25
			l1.081-5.082l-2.831,3.721l-0.201,0.945l-1.182-0.25l1.759-8.275L241.704,531.551z"/>
		<path style="fill:#FFFFFF;" d="M249.367,540.715l-0.497,2.342l-1.122-0.238l0.271-1.277l-3.051-0.648l-0.271,1.277l-1.123-0.238
			l0.497-2.342l0.556,0.119c0.383-0.525,0.732-1.117,1.023-1.848c0.441-1.092,0.926-3.139,1.232-4.58l0.128-0.604l3.215,0.684
			l-1.532,7.211L249.367,540.715z M247.896,533.979l-0.139,0.65c-0.427,2.01-0.801,3.129-1.087,3.834
			c-0.215,0.547-0.45,1.016-0.851,1.561l1.678,0.357l1.319-6.207L247.896,533.979z"/>
		<path style="fill:#FFFFFF;" d="M252.966,533.945l-0.753,3.545l0.673,0.145c0.167,0.035,0.335-0.004,0.49-0.156
			c0.199-0.18,0.31-0.465,0.491-1.031l0.24-0.729c0.144-0.439,0.32-0.92,0.74-1.152c0.405-0.223,0.857-0.139,1.165-0.074
			l0.177,0.039l-0.226,1.063l-0.153-0.033c-0.095-0.02-0.237,0.012-0.336,0.066c-0.155,0.09-0.25,0.305-0.422,0.824l-0.252,0.773
			c-0.103,0.313-0.188,0.604-0.354,0.854c-0.106,0.148-0.197,0.229-0.333,0.285l0.367,4.551l-1.289-0.273l-0.249-3.883l-0.957-0.203
			l-0.779,3.664l-1.183-0.252l1.759-8.273L252.966,533.945z"/>
		<path style="fill:#FFFFFF;" d="M258.369,543.74l-0.013-1.855l-1.514-0.32l-0.768,1.689l-1.182-0.252l3.567-7.889l1.04,0.221
			l0.051,8.658L258.369,543.74z M258.469,537.523l-1.284,3.014l1.253,0.266L258.469,537.523z"/>
		<path style="fill:#FFFFFF;" d="M267.967,544.67l-0.497,2.34l-1.124-0.238l0.271-1.277l-3.049-0.648l-0.271,1.277l-1.123-0.238
			l0.497-2.342l0.556,0.119c0.383-0.525,0.731-1.117,1.022-1.846c0.442-1.094,0.927-3.139,1.233-4.582l0.128-0.602l3.215,0.682
			l-1.532,7.211L267.967,544.67z M266.495,537.932l-0.139,0.65c-0.427,2.01-0.801,3.129-1.086,3.834
			c-0.216,0.547-0.451,1.016-0.852,1.561l1.679,0.357l1.319-6.207L266.495,537.932z"/>
		<path style="fill:#FFFFFF;" d="M269.792,539.793c0.133-0.625,0.309-1.219,0.988-1.629c0.426-0.256,0.953-0.354,1.567-0.223
			c0.615,0.129,1.057,0.434,1.341,0.84c0.455,0.652,0.374,1.266,0.241,1.893l-0.834,3.924c-0.134,0.627-0.31,1.219-0.99,1.631
			c-0.425,0.256-0.951,0.354-1.566,0.223c-0.614-0.131-1.057-0.434-1.342-0.84c-0.454-0.654-0.373-1.266-0.239-1.893
			L269.792,539.793z M272.785,540.244c0.053-0.248,0.082-0.5-0.095-0.773c-0.104-0.158-0.293-0.309-0.589-0.371
			c-0.295-0.064-0.53-0.002-0.688,0.1c-0.272,0.178-0.35,0.42-0.402,0.668l-0.91,4.279c-0.053,0.248-0.081,0.502,0.096,0.775
			c0.103,0.156,0.293,0.309,0.588,0.371c0.296,0.063,0.53,0.002,0.688-0.1c0.272-0.178,0.349-0.422,0.401-0.67L272.785,540.244z"/>
	</g>
	<g>
		<path style="fill:#FFFFFF;" d="M218.81,564.51l-5.233-1.112l12.385-17.763l-11.444-2.433l0.876-4.118l16.813,3.573l-0.66,3.105
			L218.81,564.51z M229.825,544.727l0.15-0.709l-13.1-2.784l-0.129,0.607l12.424,2.642l-12.299,17.852l0.743,0.158L229.825,544.727z
			"/>
		<path style="fill:#FFFFFF;" d="M252.105,553.627c-0.502,2.363-2.151,3.812-4.048,4.432c2.398,1.498,3.588,3.868,3.043,6.435
			c-0.875,4.118-5.705,6.091-11.376,4.886c-5.673-1.206-9.282-4.973-8.407-9.091c0.545-2.566,2.596-4.247,5.396-4.641
			c-1.479-1.337-2.396-3.332-1.895-5.695c0.818-3.849,5.035-6.093,10.101-5.017C249.983,546.012,252.924,549.778,252.105,553.627z
			 M236.78,550.687c-0.538,2.532,0.937,4.892,3.881,5.977c-4.055-0.509-6.628,1.309-7.202,4.01c-0.668,3.139,2.12,5.955,6.646,6.917
			c4.523,0.962,8.217-0.477,8.885-3.616c0.574-2.701-1.039-5.408-4.951-6.593c3.132,0.207,5.438-1.349,5.977-3.881
			c0.761-3.579-1.593-5.95-5.475-6.775C240.656,545.899,237.541,547.107,236.78,550.687z M234.134,560.816
			c0.631-2.972,3.485-4.446,8.146-3.456c4.658,0.99,6.665,3.499,6.034,6.47c-0.56,2.633-3.758,4.07-8.079,3.152
			C235.912,566.063,233.574,563.449,234.134,560.816z M246.215,563.242c0.359-1.688-1.252-3.405-4.323-4.059
			c-3.073-0.653-5.243,0.261-5.603,1.949c-0.358,1.688,1.252,3.407,4.325,4.061C243.686,565.846,245.856,564.931,246.215,563.242z
			 M237.455,550.83c0.718-3.376,3.545-4.222,6.955-3.497c3.409,0.725,5.647,2.647,4.93,6.023c-0.574,2.7-3.557,4.113-6.932,3.396
			C239.031,556.035,236.881,553.531,237.455,550.83z M247.187,552.863c0.365-1.723-0.963-3.274-3.156-3.74
			c-2.195-0.467-4.041,0.41-4.406,2.133c-0.366,1.722,0.962,3.274,3.157,3.74C244.975,555.463,246.82,554.585,247.187,552.863z"/>
		<path style="fill:#FFFFFF;" d="M260.379,559.195c-2.904-0.617-4.929-3.376-4.312-6.279s3.589-4.601,6.493-3.983
			c2.902,0.617,4.928,3.377,4.311,6.28S263.281,559.813,260.379,559.195z M256.167,571.039l19.359-19.527l2.342,2.263
			l-19.358,19.527L256.167,571.039z M262.28,550.249c-2.262-0.48-4.321,0.74-4.795,2.969c-0.474,2.228,0.911,4.181,3.173,4.661
			c2.262,0.481,4.321-0.74,4.795-2.968C265.927,552.683,264.542,550.729,262.28,550.249z M262.166,550.789
			c1.924,0.409,3.089,2.068,2.68,3.993c-0.409,1.924-2.148,2.966-4.072,2.557c-1.925-0.409-3.09-2.067-2.681-3.992
			S260.241,550.381,262.166,550.789z M258.718,571.158l17.042-17.091l-0.441-0.412l-17.043,17.091L258.718,571.158z
			 M261.046,556.056c1.08,0.23,2.138-0.428,2.382-1.575c0.244-1.148-0.455-2.179-1.535-2.408s-2.137,0.428-2.381,1.576
			C259.268,554.796,259.966,555.826,261.046,556.056z M271.645,575.917c-2.903-0.617-4.929-3.377-4.312-6.28s3.59-4.601,6.493-3.983
			s4.928,3.377,4.311,6.28S274.548,576.534,271.645,575.917z M273.547,566.97c-2.263-0.48-4.321,0.741-4.795,2.969
			c-0.474,2.229,0.91,4.181,3.173,4.662c2.262,0.48,4.32-0.74,4.794-2.969C277.192,569.404,275.809,567.451,273.547,566.97z
			 M273.432,567.511c1.924,0.409,3.089,2.068,2.68,3.992c-0.409,1.925-2.147,2.967-4.071,2.558s-3.09-2.068-2.681-3.993
			C269.769,568.144,271.508,567.102,273.432,567.511z M272.313,572.777c1.08,0.229,2.138-0.429,2.381-1.576
			c0.244-1.147-0.454-2.179-1.534-2.408c-1.081-0.229-2.139,0.428-2.383,1.576C270.533,571.517,271.231,572.548,272.313,572.777z"/>
	</g>
</g>
</svg>
