<svg viewBox="316.512 506.372 91.842 91.842">
<g>
	<path style="fill:#fb0024;" d="M344.127,594.395c23.252,10.11,50.298-0.543,60.408-23.795
		c10.111-23.252-0.543-50.298-23.795-60.409c-23.252-10.11-50.298,0.544-60.408,23.796
		C310.221,557.239,320.875,584.285,344.127,594.395"/>
	
		<ellipse transform="matrix(0.3987 -0.9171 0.9171 0.3987 -288.5716 664.4455)" style="fill:none;stroke:#FFFFFF;stroke-width:0.606;" cx="362.433" cy="552.293" rx="32.485" ry="32.484"/>
	
		<rect x="339.262" y="514.96" transform="matrix(0.2079 -0.9781 0.9781 0.2079 -253.8151 793.0258)" style="fill:#fb0024;" width="46.963" height="76.539"/>
	
		<ellipse transform="matrix(0.3987 -0.9171 0.9171 0.3987 -288.5721 664.4415)" style="fill:none;stroke:#FFFFFF;stroke-width:0.615;" cx="362.433" cy="552.293" rx="43.624" ry="43.624"/>
	<g>
		<path style="fill:#FFFFFF;" d="M346.458,531.479c0.035-0.166,0.035-0.4-0.038-0.576c-0.042-0.096-0.175-0.346-0.553-0.426
			c-0.308-0.066-0.524,0.023-0.672,0.141c-0.239,0.197-0.314,0.488-0.374,0.773l-0.867,4.078c-0.058,0.271-0.11,0.52-0.002,0.766
			c0.058,0.135,0.209,0.354,0.539,0.424c0.261,0.055,0.541,0.016,0.723-0.143c0.077-0.07,0.224-0.238,0.31-0.639l0.063-0.297
			l1.182,0.252l-0.073,0.342c-0.173,0.816-0.557,1.229-0.817,1.408c-0.307,0.219-0.852,0.4-1.667,0.227
			c-0.78-0.166-1.161-0.58-1.356-0.943c-0.319-0.588-0.187-1.152-0.096-1.576l0.912-4.291c0.115-0.545,0.316-1.145,0.946-1.492
			c0.436-0.254,1.014-0.291,1.451-0.197c0.496,0.105,1.034,0.418,1.316,0.834c0.232,0.359,0.363,0.906,0.24,1.484l-0.12,0.568
			l-1.146-0.244L346.458,531.479z"/>
		<path style="fill:#FFFFFF;" d="M350.461,530.365l-0.754,3.547l0.674,0.143c0.166,0.035,0.334-0.002,0.49-0.156
			c0.198-0.18,0.31-0.465,0.492-1.031l0.24-0.727c0.144-0.439,0.319-0.922,0.739-1.154c0.405-0.221,0.856-0.139,1.164-0.072
			l0.178,0.037l-0.226,1.064l-0.154-0.033c-0.095-0.02-0.237,0.012-0.335,0.064c-0.155,0.092-0.251,0.305-0.422,0.824l-0.252,0.775
			c-0.104,0.313-0.189,0.602-0.354,0.852c-0.106,0.15-0.197,0.229-0.334,0.287l0.368,4.551l-1.289-0.273l-0.25-3.883l-0.957-0.205
			l-0.778,3.664l-1.183-0.25l1.759-8.275L350.461,530.365z"/>
		<path style="fill:#FFFFFF;" d="M356.038,531.551l-1.081,5.082l2.831-3.721l0.201-0.947l1.182,0.252l-1.759,8.273l-1.182-0.25
			l1.08-5.082l-2.83,3.721l-0.201,0.945l-1.182-0.25l1.759-8.275L356.038,531.551z"/>
		<path style="fill:#FFFFFF;" d="M363.7,540.715l-0.497,2.342l-1.122-0.238l0.271-1.277l-3.051-0.648l-0.271,1.277l-1.123-0.238
			l0.497-2.342l0.556,0.119c0.383-0.525,0.732-1.117,1.023-1.848c0.441-1.092,0.927-3.139,1.233-4.58l0.128-0.604l3.215,0.684
			l-1.533,7.211L363.7,540.715z M362.229,533.979l-0.138,0.65c-0.428,2.01-0.801,3.129-1.088,3.834
			c-0.214,0.547-0.449,1.016-0.85,1.561l1.678,0.357l1.318-6.207L362.229,533.979z"/>
		<path style="fill:#FFFFFF;" d="M367.3,533.945l-0.754,3.545l0.673,0.145c0.167,0.035,0.335-0.004,0.49-0.156
			c0.199-0.18,0.311-0.465,0.492-1.031l0.24-0.729c0.144-0.439,0.32-0.92,0.74-1.152c0.405-0.223,0.856-0.139,1.164-0.074
			l0.177,0.039l-0.226,1.063l-0.153-0.033c-0.095-0.02-0.237,0.012-0.335,0.066c-0.155,0.09-0.251,0.305-0.423,0.824l-0.251,0.773
			c-0.104,0.313-0.189,0.604-0.354,0.854c-0.106,0.148-0.198,0.229-0.334,0.285l0.368,4.551l-1.289-0.273l-0.25-3.883l-0.957-0.203
			l-0.778,3.664l-1.183-0.252l1.759-8.273L367.3,533.945z"/>
		<path style="fill:#FFFFFF;" d="M372.703,543.74l-0.013-1.855l-1.514-0.32l-0.768,1.689l-1.182-0.252l3.567-7.889l1.04,0.221
			l0.051,8.658L372.703,543.74z M372.802,537.523l-1.283,3.014l1.253,0.266L372.802,537.523z"/>
		<path style="fill:#FFFFFF;" d="M382.3,544.67l-0.497,2.34l-1.124-0.238l0.271-1.277l-3.049-0.648l-0.271,1.277l-1.123-0.238
			l0.497-2.342l0.556,0.119c0.383-0.525,0.731-1.117,1.022-1.846c0.442-1.094,0.928-3.139,1.234-4.582l0.128-0.602l3.215,0.682
			l-1.533,7.211L382.3,544.67z M380.828,537.932l-0.138,0.65c-0.428,2.01-0.801,3.129-1.087,3.834
			c-0.215,0.547-0.45,1.016-0.851,1.561l1.679,0.357l1.318-6.207L380.828,537.932z"/>
		<path style="fill:#FFFFFF;" d="M384.125,539.793c0.134-0.625,0.309-1.219,0.989-1.629c0.426-0.256,0.953-0.354,1.567-0.223
			c0.615,0.129,1.057,0.434,1.341,0.84c0.454,0.652,0.374,1.266,0.24,1.893l-0.834,3.924c-0.133,0.627-0.309,1.219-0.989,1.631
			c-0.425,0.256-0.952,0.354-1.567,0.223c-0.614-0.131-1.056-0.434-1.341-0.84c-0.454-0.654-0.373-1.266-0.24-1.893L384.125,539.793
			z M387.118,540.244c0.053-0.248,0.082-0.5-0.095-0.773c-0.104-0.158-0.293-0.309-0.589-0.371c-0.295-0.064-0.53-0.002-0.688,0.1
			c-0.272,0.178-0.35,0.42-0.402,0.668l-0.909,4.279c-0.053,0.248-0.081,0.502,0.096,0.775c0.102,0.156,0.292,0.309,0.587,0.371
			c0.296,0.063,0.53,0.002,0.689-0.1c0.272-0.178,0.349-0.422,0.401-0.67L387.118,540.244z"/>
	</g>
	<g>
		<path style="fill:#FFFFFF;" d="M344.479,547.195c-1.221-0.896-2.763-1.611-4.384-1.955c-3.882-0.825-6.294,1.061-7.288,4.907
			c1.416-1.181,3.799-1.769,6.195-1.259c4.153,0.883,7.716,4.71,6.589,10.01c-1.069,5.031-5.851,7.438-10.746,6.396
			c-3.984-0.847-7.442-3.663-7.922-8.387c-0.156-1.587-0.08-3.441,0.358-5.5c0.373-1.756,0.874-3.448,1.52-4.828
			c2.134-4.559,6.276-6.783,12.017-5.563c2.06,0.438,4.362,1.386,5.965,2.644L344.479,547.195z M344.13,544.191
			c-1.103-0.623-2.478-1.127-3.692-1.385c-4.457-0.947-7.883,0.725-9.688,4.574c-0.569,1.186-1.012,2.432-1.37,4.12
			c-0.395,1.856-0.5,3.846-0.321,5.331c0.425,3.972,3.102,5.987,5.938,6.59c3.681,0.783,7.615-0.957,8.469-4.975
			c0.804-3.781-1.695-7.136-5.678-7.982c-3.681-0.782-7.063,1.181-8.153,4.16c0.082-1.218,0.284-2.339,0.5-3.352
			c0.272-1.283,0.699-2.463,1.271-3.647c1.901-3.971,5.156-5.008,8.769-4.24c1.419,0.302,2.624,0.769,3.633,1.337L344.13,544.191z
			 M335.125,562.814c-3.274-0.696-5.933-3.625-5.193-7.103c0.746-3.512,4.431-5.41,7.705-4.714c3.275,0.696,5.957,3.524,5.16,7.271
			C342.001,562.018,338.4,563.511,335.125,562.814z M335.499,561.059c2.229,0.475,4.632-0.709,5.17-3.241s-1.177-4.59-3.405-5.063
			c-2.228-0.474-4.632,0.709-5.17,3.241S333.271,560.586,335.499,561.059z"/>
		<path style="fill:#FFFFFF;" d="M366.764,551.932c-1.221-0.896-2.763-1.611-4.384-1.955c-3.883-0.825-6.295,1.061-7.289,4.908
			c1.416-1.182,3.799-1.77,6.196-1.26c4.153,0.883,7.715,4.71,6.588,10.011c-1.069,5.03-5.851,7.437-10.746,6.396
			c-3.984-0.848-7.442-3.664-7.921-8.388c-0.157-1.587-0.081-3.44,0.357-5.5c0.373-1.756,0.874-3.448,1.521-4.828
			c2.133-4.559,6.276-6.783,12.016-5.563c2.06,0.438,4.363,1.386,5.966,2.644L366.764,551.932z M366.413,548.928
			c-1.103-0.622-2.477-1.126-3.692-1.385c-4.457-0.947-7.882,0.725-9.688,4.574c-0.569,1.186-1.012,2.433-1.37,4.12
			c-0.395,1.857-0.5,3.846-0.321,5.331c0.425,3.972,3.103,5.987,5.938,6.59c3.68,0.783,7.614-0.957,8.468-4.975
			c0.804-3.781-1.694-7.135-5.678-7.982c-3.681-0.782-7.063,1.181-8.153,4.16c0.082-1.218,0.285-2.339,0.501-3.352
			c0.272-1.283,0.699-2.463,1.27-3.647c1.902-3.971,5.156-5.008,8.77-4.24c1.418,0.302,2.624,0.77,3.632,1.337L366.413,548.928z
			 M357.409,567.551c-3.274-0.696-5.934-3.625-5.194-7.103c0.746-3.512,4.432-5.41,7.706-4.714c3.275,0.696,5.956,3.524,5.159,7.271
			C364.284,566.754,360.685,568.247,357.409,567.551z M357.783,565.795c2.229,0.475,4.632-0.709,5.17-3.241s-1.177-4.59-3.405-5.063
			c-2.228-0.474-4.632,0.709-5.17,3.241S355.556,565.322,357.783,565.795z"/>
		<path style="fill:#FFFFFF;" d="M377.38,559.763c-2.904-0.617-4.929-3.376-4.312-6.279s3.589-4.601,6.493-3.983
			c2.902,0.617,4.928,3.376,4.311,6.279S380.282,560.38,377.38,559.763z M373.168,571.605l19.359-19.526l2.342,2.262l-19.358,19.527
			L373.168,571.605z M379.281,550.816c-2.262-0.481-4.321,0.739-4.795,2.968s0.912,4.182,3.174,4.662
			c2.262,0.481,4.32-0.74,4.794-2.968C382.928,553.25,381.543,551.297,379.281,550.816z M379.167,551.356
			c1.924,0.409,3.089,2.068,2.68,3.992c-0.409,1.925-2.148,2.966-4.072,2.558c-1.925-0.409-3.09-2.068-2.681-3.992
			C375.503,551.989,377.242,550.947,379.167,551.356z M375.72,571.725l17.041-17.09l-0.441-0.412l-17.042,17.091L375.72,571.725z
			 M378.048,556.623c1.08,0.229,2.137-0.428,2.381-1.575c0.244-1.148-0.454-2.179-1.534-2.408s-2.138,0.427-2.382,1.575
			C376.269,555.362,376.968,556.394,378.048,556.623z M388.646,576.483c-2.902-0.616-4.928-3.376-4.311-6.279
			s3.59-4.601,6.492-3.984c2.904,0.617,4.929,3.378,4.312,6.281S391.55,577.101,388.646,576.483z M390.547,567.537
			c-2.262-0.48-4.319,0.74-4.793,2.969c-0.474,2.228,0.909,4.181,3.171,4.661c2.263,0.481,4.322-0.739,4.796-2.968
			S392.81,568.018,390.547,567.537z M390.433,568.077c1.925,0.409,3.09,2.068,2.681,3.993c-0.409,1.924-2.148,2.966-4.073,2.557
			c-1.924-0.408-3.088-2.067-2.679-3.992C386.771,568.711,388.509,567.669,390.433,568.077z M389.313,573.345
			c1.081,0.229,2.139-0.429,2.383-1.576s-0.455-2.179-1.536-2.408c-1.08-0.229-2.137,0.428-2.381,1.576
			C387.534,572.084,388.232,573.115,389.313,573.345z"/>
	</g>
</g>
</svg>
