<svg viewBox="98.179 391.038 91.842 91.842">
<g>
	<path style="fill:#D70029;" d="M125.794,479.061c23.252,10.11,50.298-0.543,60.408-23.795
		c10.111-23.252-0.543-50.298-23.795-60.409c-23.252-10.11-50.298,0.544-60.408,23.796
		C91.888,441.905,102.542,468.951,125.794,479.061"/>
	
		<ellipse transform="matrix(0.3987 -0.9171 0.9171 0.3987 -314.0784 394.8748)" style="fill:none;stroke:#FFFFFF;stroke-width:0.606;" cx="144.1" cy="436.96" rx="32.485" ry="32.484"/>
	
		<rect x="120.928" y="399.627" transform="matrix(0.2079 -0.9781 0.9781 0.2079 -313.942 488.1088)" style="fill:#D70029;" width="46.963" height="76.539"/>
	
		<ellipse transform="matrix(0.3987 -0.9171 0.9171 0.3987 -314.078 394.8719)" style="fill:none;stroke:#FFFFFF;stroke-width:0.615;" cx="144.1" cy="436.96" rx="43.624" ry="43.624"/>
	<g>
		<path style="fill:#FFFFFF;" d="M128.124,416.146c0.035-0.166,0.035-0.4-0.037-0.576c-0.042-0.097-0.175-0.347-0.553-0.427
			c-0.308-0.065-0.524,0.024-0.672,0.142c-0.24,0.196-0.314,0.488-0.375,0.772l-0.866,4.078c-0.058,0.271-0.111,0.521-0.003,0.766
			c0.058,0.136,0.21,0.354,0.54,0.424c0.261,0.056,0.54,0.016,0.723-0.143c0.077-0.07,0.224-0.237,0.309-0.639l0.063-0.296
			l1.182,0.251l-0.073,0.343c-0.174,0.816-0.557,1.229-0.817,1.407c-0.308,0.22-0.852,0.4-1.667,0.228
			c-0.78-0.166-1.162-0.581-1.356-0.943c-0.32-0.588-0.187-1.152-0.097-1.577l0.912-4.291c0.116-0.544,0.316-1.144,0.947-1.492
			c0.436-0.253,1.013-0.29,1.45-0.197c0.496,0.105,1.035,0.418,1.316,0.835c0.233,0.358,0.364,0.906,0.241,1.484l-0.121,0.567
			l-1.146-0.243L128.124,416.146z"/>
		<path style="fill:#FFFFFF;" d="M132.127,415.032l-0.753,3.546l0.674,0.144c0.166,0.035,0.334-0.003,0.49-0.156
			c0.198-0.18,0.309-0.465,0.491-1.031l0.24-0.728c0.144-0.439,0.319-0.921,0.739-1.153c0.405-0.222,0.857-0.139,1.165-0.073
			l0.178,0.038l-0.226,1.063l-0.154-0.033c-0.095-0.02-0.237,0.013-0.336,0.065c-0.155,0.091-0.25,0.305-0.421,0.824l-0.253,0.774
			c-0.103,0.313-0.188,0.603-0.354,0.853c-0.106,0.149-0.196,0.229-0.333,0.286l0.367,4.551l-1.289-0.273l-0.249-3.883l-0.957-0.204
			l-0.779,3.664l-1.183-0.251l1.759-8.274L132.127,415.032z"/>
		<path style="fill:#FFFFFF;" d="M137.704,416.218l-1.08,5.082l2.831-3.722l0.2-0.946l1.182,0.251l-1.759,8.274l-1.182-0.251
			l1.081-5.082l-2.831,3.722l-0.201,0.945l-1.182-0.251l1.759-8.274L137.704,416.218z"/>
		<path style="fill:#FFFFFF;" d="M145.367,425.382l-0.497,2.341l-1.122-0.238l0.271-1.276l-3.051-0.648l-0.271,1.276l-1.123-0.238
			l0.497-2.341l0.556,0.118c0.383-0.524,0.732-1.117,1.023-1.847c0.441-1.092,0.926-3.139,1.232-4.58l0.128-0.604l3.215,0.684
			l-1.532,7.211L145.367,425.382z M143.896,418.645l-0.139,0.65c-0.427,2.01-0.801,3.129-1.087,3.834
			c-0.215,0.547-0.45,1.017-0.851,1.562l1.678,0.356l1.319-6.206L143.896,418.645z"/>
		<path style="fill:#FFFFFF;" d="M148.966,418.611l-0.753,3.546l0.673,0.144c0.167,0.035,0.335-0.003,0.49-0.156
			c0.199-0.18,0.31-0.465,0.491-1.031l0.24-0.728c0.144-0.439,0.32-0.921,0.74-1.153c0.405-0.222,0.857-0.139,1.165-0.073
			l0.177,0.038l-0.226,1.063l-0.153-0.033c-0.095-0.02-0.237,0.012-0.336,0.065c-0.155,0.091-0.25,0.305-0.422,0.824l-0.252,0.774
			c-0.103,0.313-0.188,0.603-0.354,0.853c-0.106,0.149-0.197,0.229-0.333,0.286l0.367,4.551l-1.289-0.273l-0.249-3.883l-0.957-0.203
			l-0.779,3.664l-1.183-0.252l1.759-8.274L148.966,418.611z"/>
		<path style="fill:#FFFFFF;" d="M154.369,428.407l-0.013-1.855l-1.514-0.321l-0.768,1.689l-1.182-0.251l3.567-7.89l1.04,0.221
			l0.051,8.659L154.369,428.407z M154.469,422.189l-1.284,3.014l1.253,0.267L154.469,422.189z"/>
		<path style="fill:#FFFFFF;" d="M163.967,429.336l-0.497,2.341l-1.124-0.239l0.271-1.276l-3.049-0.648l-0.271,1.276l-1.123-0.238
			l0.497-2.341l0.556,0.118c0.383-0.524,0.731-1.117,1.022-1.846c0.442-1.093,0.927-3.139,1.233-4.581l0.128-0.603l3.215,0.683
			l-1.532,7.211L163.967,429.336z M162.495,422.599l-0.139,0.65c-0.427,2.009-0.801,3.128-1.086,3.833
			c-0.216,0.547-0.451,1.017-0.852,1.562l1.679,0.356l1.319-6.206L162.495,422.599z"/>
		<path style="fill:#FFFFFF;" d="M165.792,424.46c0.133-0.626,0.309-1.219,0.988-1.63c0.426-0.256,0.953-0.354,1.567-0.223
			c0.615,0.13,1.057,0.435,1.341,0.841c0.455,0.652,0.374,1.266,0.241,1.892l-0.834,3.925c-0.134,0.627-0.31,1.219-0.99,1.631
			c-0.425,0.256-0.951,0.354-1.566,0.223c-0.614-0.131-1.057-0.435-1.342-0.841c-0.454-0.653-0.373-1.266-0.239-1.892
			L165.792,424.46z M168.785,424.911c0.053-0.248,0.082-0.501-0.095-0.773c-0.104-0.158-0.293-0.31-0.589-0.372
			c-0.295-0.063-0.53-0.002-0.688,0.101c-0.272,0.177-0.35,0.42-0.402,0.668l-0.91,4.279c-0.053,0.248-0.081,0.502,0.096,0.774
			c0.103,0.157,0.293,0.309,0.588,0.372c0.296,0.063,0.53,0.001,0.688-0.101c0.272-0.177,0.349-0.421,0.401-0.669L168.785,424.911z"
			/>
	</g>
	<g>
		<path style="fill:#FFFFFF;" d="M128.388,434.102c-0.502,2.363-2.151,3.813-4.048,4.433c2.398,1.497,3.588,3.868,3.043,6.434
			c-0.875,4.119-5.705,6.092-11.376,4.886c-5.673-1.205-9.282-4.972-8.407-9.091c0.545-2.565,2.596-4.247,5.396-4.64
			c-1.479-1.338-2.396-3.332-1.895-5.695c0.818-3.849,5.035-6.094,10.101-5.018C126.266,426.486,129.206,430.253,128.388,434.102z
			 M113.063,431.161c-0.538,2.532,0.937,4.893,3.881,5.978c-4.055-0.509-6.628,1.308-7.202,4.009
			c-0.668,3.14,2.12,5.955,6.646,6.917c4.523,0.962,8.217-0.477,8.885-3.616c0.574-2.701-1.039-5.407-4.951-6.592
			c3.132,0.206,5.438-1.35,5.977-3.882c0.761-3.578-1.593-5.949-5.475-6.774C116.938,426.375,113.823,427.583,113.063,431.161z
			 M110.416,441.291c0.631-2.971,3.485-4.446,8.146-3.456c4.658,0.99,6.665,3.499,6.034,6.47c-0.56,2.633-3.758,4.07-8.079,3.152
			C112.194,446.538,109.856,443.924,110.416,441.291z M122.497,443.718c0.359-1.688-1.252-3.406-4.323-4.06
			c-3.073-0.653-5.243,0.262-5.603,1.949c-0.358,1.688,1.252,3.407,4.325,4.061C119.968,446.32,122.139,445.405,122.497,443.718z
			 M113.737,431.305c0.718-3.376,3.545-4.222,6.955-3.497c3.409,0.725,5.647,2.647,4.93,6.023c-0.574,2.7-3.557,4.114-6.932,3.396
			C115.313,436.51,113.163,434.006,113.737,431.305z M123.469,433.338c0.365-1.722-0.963-3.274-3.156-3.74
			c-2.195-0.467-4.041,0.411-4.406,2.133c-0.366,1.723,0.962,3.274,3.157,3.741C121.257,435.938,123.103,435.061,123.469,433.338z"
			/>
		<path style="fill:#FFFFFF;" d="M147.62,449.375c-0.911,4.287-4.976,6.141-10.58,4.949c-2.802-0.596-5.86-1.81-8.208-3.544
			l2.303-3.533c1.758,1.362,4.027,2.303,6.052,2.733c3.479,0.739,5.146,0.035,5.548-1.855c0.459-2.161-1.583-3.513-5.837-4.417
			l-1.857-0.395l0.876-4.118l1.924,0.408c3.884,0.826,6.257,0.448,6.737-1.813c0.416-1.958-1.07-3.263-4.177-3.923
			c-1.891-0.401-4.017-0.36-5.674,0.135l-0.668-4.164c2.058-0.552,4.902-0.652,7.975,0c5.199,1.105,8.428,4.509,7.56,8.595
			c-0.588,2.768-2.394,4.289-4.863,4.788C146.995,444.514,148.165,446.81,147.62,449.375z M147.438,438.115
			c0.631-2.971-1.43-5.562-5.852-6.502c-1.823-0.388-3.771-0.52-5.33-0.321l0.113,0.624c1.451-0.186,3.229-0.09,5.087,0.306
			c3.883,0.825,5.845,3.218,5.313,5.717c-0.739,3.478-3.969,4.555-9.133,3.457l-0.236-0.05l-0.129,0.607l0.168,0.035
			c6.246,1.328,7.967,4.023,7.393,6.724c-0.639,3.005-3.095,4.105-7.282,3.216c-2.093-0.445-3.968-1.09-5.782-2.182l-0.324,0.531
			c1.949,1.119,4.019,1.842,5.977,2.258c4.659,0.99,7.398-0.438,8.088-3.68c0.502-2.363-0.578-4.922-4.661-6.46
			C144.662,442.536,146.849,440.884,147.438,438.115z"/>
		<path style="fill:#FFFFFF;" d="M157.933,444.192c-2.903-0.617-4.928-3.376-4.311-6.28c0.617-2.902,3.589-4.601,6.492-3.983
			s4.929,3.377,4.312,6.28S160.836,444.809,157.933,444.192z M153.721,456.035l19.359-19.527l2.343,2.263l-19.358,19.527
			L153.721,456.035z M159.834,435.245c-2.262-0.48-4.321,0.74-4.795,2.969c-0.474,2.228,0.911,4.181,3.173,4.662
			c2.263,0.48,4.321-0.74,4.795-2.969S162.097,435.727,159.834,435.245z M159.72,435.786c1.924,0.409,3.089,2.067,2.68,3.992
			s-2.148,2.966-4.072,2.557c-1.925-0.409-3.089-2.067-2.68-3.992C156.057,436.419,157.795,435.377,159.72,435.786z
			 M156.271,456.154l17.043-17.091l-0.442-0.411l-17.042,17.091L156.271,456.154z M158.6,441.053
			c1.081,0.229,2.139-0.429,2.383-1.576c0.244-1.148-0.455-2.179-1.536-2.408c-1.08-0.229-2.137,0.428-2.381,1.576
			C156.821,439.792,157.52,440.822,158.6,441.053z M169.198,460.913c-2.903-0.617-4.928-3.376-4.311-6.279s3.589-4.602,6.492-3.984
			c2.904,0.617,4.928,3.377,4.311,6.28S172.103,461.53,169.198,460.913z M171.101,451.966c-2.262-0.48-4.321,0.741-4.795,2.97
			c-0.474,2.228,0.911,4.181,3.173,4.661s4.321-0.74,4.795-2.968C174.747,454.4,173.362,452.447,171.101,451.966z M170.985,452.507
			c1.925,0.409,3.09,2.068,2.681,3.992c-0.409,1.925-2.147,2.967-4.072,2.558c-1.924-0.409-3.09-2.068-2.681-3.992
			C167.322,453.14,169.062,452.098,170.985,452.507z M169.866,457.773c1.08,0.23,2.138-0.428,2.381-1.575
			c0.244-1.148-0.454-2.179-1.534-2.409c-1.08-0.229-2.138,0.429-2.382,1.576C168.088,456.513,168.786,457.544,169.866,457.773z"/>
	</g>
</g>
</svg>
