<svg viewBox="205.179 391.038 91.842 91.842">
<g>
	<path style="fill:#fb0024;" d="M232.794,479.061c23.252,10.11,50.298-0.543,60.408-23.795
		c10.111-23.252-0.543-50.298-23.795-60.409c-23.252-10.11-50.298,0.544-60.408,23.796
		C198.888,441.905,209.542,468.951,232.794,479.061"/>
	
		<ellipse transform="matrix(0.3987 -0.9171 0.9171 0.3987 -249.7438 493.0006)" style="fill:none;stroke:#FFFFFF;stroke-width:0.606;" cx="251.1" cy="436.96" rx="32.485" ry="32.484"/>
	
		<rect x="227.928" y="399.627" transform="matrix(0.2079 -0.9781 0.9781 0.2079 -229.1882 592.7707)" style="fill:#fb0024;" width="46.963" height="76.539"/>
	
		<ellipse transform="matrix(0.3987 -0.9171 0.9171 0.3987 -249.7439 492.9974)" style="fill:none;stroke:#FFFFFF;stroke-width:0.615;" cx="251.1" cy="436.96" rx="43.624" ry="43.624"/>
	<g>
		<path style="fill:#FFFFFF;" d="M235.124,416.146c0.035-0.166,0.035-0.4-0.037-0.576c-0.042-0.097-0.175-0.347-0.553-0.427
			c-0.308-0.065-0.524,0.024-0.672,0.142c-0.24,0.196-0.314,0.488-0.375,0.772l-0.866,4.078c-0.058,0.271-0.111,0.521-0.003,0.766
			c0.058,0.136,0.21,0.354,0.54,0.424c0.261,0.056,0.54,0.016,0.723-0.143c0.077-0.07,0.224-0.237,0.309-0.639l0.063-0.296
			l1.182,0.251l-0.073,0.343c-0.174,0.816-0.557,1.229-0.817,1.407c-0.308,0.22-0.852,0.4-1.667,0.228
			c-0.78-0.166-1.162-0.581-1.356-0.943c-0.32-0.588-0.187-1.152-0.097-1.577l0.912-4.291c0.116-0.544,0.316-1.144,0.947-1.492
			c0.436-0.253,1.013-0.29,1.45-0.197c0.496,0.105,1.035,0.418,1.316,0.835c0.233,0.358,0.364,0.906,0.241,1.484l-0.121,0.567
			l-1.146-0.243L235.124,416.146z"/>
		<path style="fill:#FFFFFF;" d="M239.127,415.032l-0.753,3.546l0.674,0.144c0.166,0.035,0.334-0.003,0.49-0.156
			c0.198-0.18,0.309-0.465,0.491-1.031l0.24-0.728c0.144-0.439,0.319-0.921,0.739-1.153c0.405-0.222,0.857-0.139,1.165-0.073
			l0.178,0.038l-0.226,1.063l-0.154-0.033c-0.095-0.02-0.237,0.013-0.336,0.065c-0.155,0.091-0.25,0.305-0.421,0.824l-0.253,0.774
			c-0.103,0.313-0.188,0.603-0.354,0.853c-0.106,0.149-0.196,0.229-0.333,0.286l0.367,4.551l-1.289-0.273l-0.249-3.883l-0.957-0.204
			l-0.779,3.664l-1.183-0.251l1.759-8.274L239.127,415.032z"/>
		<path style="fill:#FFFFFF;" d="M244.704,416.218l-1.08,5.082l2.831-3.722l0.2-0.946l1.182,0.251l-1.759,8.274l-1.182-0.251
			l1.081-5.082l-2.831,3.722l-0.201,0.945l-1.182-0.251l1.759-8.274L244.704,416.218z"/>
		<path style="fill:#FFFFFF;" d="M252.367,425.382l-0.497,2.341l-1.122-0.238l0.271-1.276l-3.051-0.648l-0.271,1.276l-1.123-0.238
			l0.497-2.341l0.556,0.118c0.383-0.524,0.732-1.117,1.023-1.847c0.441-1.092,0.926-3.139,1.232-4.58l0.128-0.604l3.215,0.684
			l-1.532,7.211L252.367,425.382z M250.896,418.645l-0.139,0.65c-0.427,2.01-0.801,3.129-1.087,3.834
			c-0.215,0.547-0.45,1.017-0.851,1.562l1.678,0.356l1.319-6.206L250.896,418.645z"/>
		<path style="fill:#FFFFFF;" d="M255.966,418.611l-0.753,3.546l0.673,0.144c0.167,0.035,0.335-0.003,0.49-0.156
			c0.199-0.18,0.31-0.465,0.491-1.031l0.24-0.728c0.144-0.439,0.32-0.921,0.74-1.153c0.405-0.222,0.857-0.139,1.165-0.073
			l0.177,0.038l-0.226,1.063l-0.153-0.033c-0.095-0.02-0.237,0.012-0.336,0.065c-0.155,0.091-0.25,0.305-0.422,0.824l-0.252,0.774
			c-0.103,0.313-0.188,0.603-0.354,0.853c-0.106,0.149-0.197,0.229-0.333,0.286l0.367,4.551l-1.289-0.273l-0.249-3.883l-0.957-0.203
			l-0.779,3.664l-1.183-0.252l1.759-8.274L255.966,418.611z"/>
		<path style="fill:#FFFFFF;" d="M261.369,428.407l-0.013-1.855l-1.514-0.321l-0.768,1.689l-1.182-0.251l3.567-7.89l1.04,0.221
			l0.051,8.659L261.369,428.407z M261.469,422.189l-1.284,3.014l1.253,0.267L261.469,422.189z"/>
		<path style="fill:#FFFFFF;" d="M270.967,429.336l-0.497,2.341l-1.124-0.239l0.271-1.276l-3.049-0.648l-0.271,1.276l-1.123-0.238
			l0.497-2.341l0.556,0.118c0.383-0.524,0.731-1.117,1.022-1.846c0.442-1.093,0.927-3.139,1.233-4.581l0.128-0.603l3.215,0.683
			l-1.532,7.211L270.967,429.336z M269.495,422.599l-0.139,0.65c-0.427,2.009-0.801,3.128-1.086,3.833
			c-0.216,0.547-0.451,1.017-0.852,1.562l1.679,0.356l1.319-6.206L269.495,422.599z"/>
		<path style="fill:#FFFFFF;" d="M272.792,424.46c0.133-0.626,0.309-1.219,0.988-1.63c0.426-0.256,0.953-0.354,1.567-0.223
			c0.615,0.13,1.057,0.435,1.341,0.841c0.455,0.652,0.374,1.266,0.241,1.892l-0.834,3.925c-0.134,0.627-0.31,1.219-0.99,1.631
			c-0.425,0.256-0.951,0.354-1.566,0.223c-0.614-0.131-1.057-0.435-1.342-0.841c-0.454-0.653-0.373-1.266-0.239-1.892
			L272.792,424.46z M275.785,424.911c0.053-0.248,0.082-0.501-0.095-0.773c-0.104-0.158-0.293-0.31-0.589-0.372
			c-0.295-0.063-0.53-0.002-0.688,0.101c-0.272,0.177-0.35,0.42-0.402,0.668l-0.91,4.279c-0.053,0.248-0.081,0.502,0.096,0.774
			c0.103,0.157,0.293,0.309,0.588,0.372c0.296,0.063,0.53,0.001,0.688-0.101c0.272-0.177,0.349-0.421,0.401-0.669L275.785,424.911z"
			/>
	</g>
	<g>
		<path style="fill:#FFFFFF;" d="M237.389,435.102c-0.503,2.363-2.151,3.813-4.048,4.434c2.398,1.496,3.588,3.867,3.042,6.434
			c-0.875,4.119-5.705,6.092-11.376,4.885c-5.673-1.205-9.282-4.971-8.407-9.09c0.546-2.566,2.597-4.248,5.397-4.641
			c-1.479-1.338-2.397-3.332-1.895-5.695c0.817-3.848,5.035-6.094,10.101-5.018C235.267,427.486,238.206,431.254,237.389,435.102z
			 M222.063,432.162c-0.538,2.531,0.936,4.893,3.881,5.977c-4.056-0.508-6.629,1.309-7.203,4.01
			c-0.667,3.139,2.121,5.955,6.646,6.916c4.523,0.963,8.217-0.477,8.884-3.615c0.574-2.701-1.039-5.408-4.95-6.592
			c3.131,0.205,5.438-1.35,5.977-3.883c0.761-3.578-1.594-5.949-5.476-6.773C225.938,427.375,222.824,428.584,222.063,432.162z
			 M219.416,442.291c0.632-2.971,3.485-4.445,8.146-3.455c4.658,0.99,6.666,3.498,6.034,6.469c-0.56,2.633-3.758,4.07-8.079,3.152
			C221.194,447.539,218.856,444.924,219.416,442.291z M231.497,444.719c0.359-1.689-1.252-3.406-4.323-4.061
			c-3.073-0.652-5.243,0.262-5.603,1.949c-0.358,1.689,1.253,3.408,4.326,4.061C228.969,447.32,231.139,446.406,231.497,444.719z
			 M222.738,432.305c0.717-3.375,3.545-4.221,6.955-3.496c3.409,0.725,5.646,2.646,4.93,6.023c-0.574,2.699-3.557,4.113-6.932,3.396
			C224.314,437.51,222.164,435.006,222.738,432.305z M232.469,434.338c0.366-1.721-0.963-3.273-3.156-3.74
			c-2.195-0.467-4.04,0.412-4.406,2.133c-0.366,1.723,0.963,3.275,3.158,3.742C230.258,436.938,232.103,436.061,232.469,434.338z"/>
		<path style="fill:#FFFFFF;" d="M242.413,439.027l-1.776-3.764l9.297-4.234l4.255,0.904l-5.022,23.633l-4.862-1.033l3.854-18.131
			L242.413,439.027z M250.968,433.473l-4.212,19.816l0.675,0.145l4.334-20.393l-0.979-0.207l-7.723,3.299l0.324,0.633
			L250.968,433.473z"/>
		<path style="fill:#FFFFFF;" d="M263.218,444.402c-2.903-0.617-4.928-3.375-4.311-6.279c0.617-2.902,3.589-4.6,6.492-3.982
			c2.903,0.615,4.929,3.375,4.312,6.279C269.094,443.322,266.121,445.02,263.218,444.402z M259.006,456.246l19.36-19.527
			l2.342,2.262l-19.358,19.527L259.006,456.246z M265.119,435.457c-2.262-0.482-4.321,0.738-4.795,2.967s0.912,4.182,3.174,4.662
			c2.263,0.48,4.32-0.74,4.794-2.967C268.766,437.891,267.382,435.938,265.119,435.457z M265.005,435.996
			c1.924,0.41,3.089,2.068,2.68,3.992c-0.409,1.926-2.148,2.967-4.072,2.559c-1.925-0.41-3.089-2.068-2.68-3.992
			C261.342,436.629,263.08,435.588,265.005,435.996z M261.558,456.365l17.042-17.09l-0.442-0.412l-17.041,17.09L261.558,456.365z
			 M263.886,441.264c1.081,0.229,2.137-0.428,2.381-1.576s-0.453-2.178-1.534-2.408c-1.08-0.23-2.138,0.428-2.382,1.576
			C262.106,440.002,262.806,441.033,263.886,441.264z M274.484,461.123c-2.903-0.617-4.928-3.375-4.311-6.279
			c0.617-2.902,3.589-4.602,6.492-3.984c2.904,0.617,4.928,3.379,4.311,6.281C280.359,460.045,277.389,461.74,274.484,461.123z
			 M276.386,452.178c-2.262-0.482-4.32,0.74-4.794,2.969c-0.474,2.227,0.91,4.18,3.172,4.66c2.262,0.482,4.322-0.74,4.796-2.967
			C280.033,454.611,278.647,452.658,276.386,452.178z M276.271,452.717c1.925,0.41,3.09,2.068,2.681,3.994
			c-0.409,1.924-2.148,2.965-4.073,2.557c-1.924-0.408-3.089-2.068-2.68-3.992S274.348,452.309,276.271,452.717z M275.151,457.984
			c1.08,0.23,2.138-0.428,2.382-1.576c0.244-1.146-0.455-2.178-1.535-2.408c-1.08-0.229-2.137,0.428-2.381,1.576
			S274.071,457.756,275.151,457.984z"/>
	</g>
</g>
</svg>
