<svg viewBox="0 0 91.8 91.8" >
<g>
	<path style="fill:#fb0024;" d="M27.6,88C50.9,98.1,77.9,87.5,88,64.2C98.1,41,87.5,13.9,64.2,3.8C41-6.3,13.9,4.3,3.8,27.6
		C-6.3,50.8,4.4,77.9,27.6,88"/>
	
		<ellipse transform="matrix(0.3987 -0.9171 0.9171 0.3987 -14.4508 69.7068)" style="fill:none;stroke:#FFFFFF;stroke-width:0.606;" cx="45.9" cy="45.9" rx="32.5" ry="32.5"/>
		<rect x="22.7" y="8.6" transform="matrix(0.2079 -0.9781 0.9781 0.2079 -9.2125 82.2978)" style="fill:#fb0024;" width="47" height="76.5"/>
	
		<ellipse transform="matrix(0.3987 -0.9171 0.9171 0.3987 -14.4479 69.7054)" style="fill:none;stroke:#FFFFFF;stroke-width:0.615;" cx="45.9" cy="45.9" rx="43.6" ry="43.6"/>
	<g>
		<path style="fill:#FFFFFF;" d="M29.9,25.1c0-0.2,0-0.4,0-0.6c0-0.1-0.2-0.3-0.6-0.4c-0.3-0.1-0.5,0-0.7,0.1c-0.2,0.2-0.3,0.5-0.4,0.8
			l-0.9,4.1c-0.1,0.3-0.1,0.5,0,0.8c0.1,0.1,0.2,0.4,0.5,0.4c0.3,0.1,0.5,0,0.7-0.1c0.1-0.1,0.2-0.2,0.3-0.6l0.1-0.3l1.2,0.3
			l-0.1,0.3c-0.2,0.8-0.6,1.2-0.8,1.4c-0.3,0.2-0.9,0.4-1.7,0.2c-0.8-0.2-1.2-0.6-1.4-0.9c-0.3-0.6-0.2-1.2-0.1-1.6l0.9-4.3
			c0.1-0.5,0.3-1.1,0.9-1.5c0.4-0.3,1-0.3,1.4-0.2c0.5,0.1,1,0.4,1.3,0.8c0.2,0.4,0.4,0.9,0.2,1.5L31,25.8l-1.1-0.2L29.9,25.1z"/>
		<path style="fill:#FFFFFF;" d="M33.9,24l-0.8,3.5l0.7,0.1c0.2,0,0.3,0,0.5-0.2c0.2-0.2,0.3-0.5,0.5-1l0.2-0.7c0.1-0.4,0.3-0.9,0.7-1.2
			c0.4-0.2,0.9-0.1,1.2-0.1l0.2,0l-0.2,1.1l-0.2,0c-0.1,0-0.2,0-0.3,0.1c-0.2,0.1-0.3,0.3-0.4,0.8l-0.3,0.8
			c-0.1,0.3-0.2,0.6-0.4,0.9c-0.1,0.1-0.2,0.2-0.3,0.3l0.4,4.6l-1.3-0.3l-0.2-3.9l-1-0.2l-0.8,3.7L31,32l1.8-8.3L33.9,24z"/>
		<path style="fill:#FFFFFF;" d="M39.5,25.2l-1.1,5.1l2.8-3.7l0.2-0.9l1.2,0.3l-1.8,8.3l-1.2-0.3l1.1-5.1L38,32.5l-0.2,0.9l-1.2-0.3l1.8-8.3
			L39.5,25.2z"/>
		<path style="fill:#FFFFFF;" d="M47.2,34.3l-0.5,2.3l-1.1-0.2l0.3-1.3l-3.1-0.6l-0.3,1.3l-1.1-0.2l0.5-2.3l0.6,0.1c0.4-0.5,0.7-1.1,1-1.8
			c0.4-1.1,0.9-3.1,1.2-4.6l0.1-0.6L48,27l-1.5,7.2L47.2,34.3z M45.7,27.6l-0.1,0.6c-0.4,2-0.8,3.1-1.1,3.8c-0.2,0.5-0.4,1-0.9,1.6
			l1.7,0.4l1.3-6.2L45.7,27.6z"/>
		<path style="fill:#FFFFFF;" d="M50.8,27.5L50,31.1l0.7,0.1c0.2,0,0.3,0,0.5-0.2c0.2-0.2,0.3-0.5,0.5-1l0.2-0.7c0.1-0.4,0.3-0.9,0.7-1.2
			c0.4-0.2,0.9-0.1,1.2-0.1l0.2,0l-0.2,1.1l-0.2,0c-0.1,0-0.2,0-0.3,0.1c-0.2,0.1-0.3,0.3-0.4,0.8l-0.3,0.8
			c-0.1,0.3-0.2,0.6-0.4,0.9c-0.1,0.1-0.2,0.2-0.3,0.3l0.4,4.6L51,36.2l-0.2-3.9l-1-0.2L49,35.8l-1.2-0.3l1.8-8.3L50.8,27.5z"/>
		<path style="fill:#FFFFFF;" d="M56.2,37.3l0-1.9l-1.5-0.3l-0.8,1.7l-1.2-0.3l3.6-7.9l1,0.2l0.1,8.7L56.2,37.3z M56.3,31.1l-1.3,3l1.3,0.3
			L56.3,31.1z"/>
		<path style="fill:#FFFFFF;" d="M65.8,38.3l-0.5,2.3l-1.1-0.2l0.3-1.3l-3-0.6l-0.3,1.3L60,39.5l0.5-2.3l0.6,0.1c0.4-0.5,0.7-1.1,1-1.8
			c0.4-1.1,0.9-3.1,1.2-4.6l0.1-0.6l3.2,0.7l-1.5,7.2L65.8,38.3z M64.3,31.5l-0.1,0.6c-0.4,2-0.8,3.1-1.1,3.8
			c-0.2,0.5-0.5,1-0.9,1.6l1.7,0.4l1.3-6.2L64.3,31.5z"/>
		<path style="fill:#FFFFFF;" d="M67.6,33.4c0.1-0.6,0.3-1.2,1-1.6c0.4-0.3,1-0.4,1.6-0.2c0.6,0.1,1.1,0.4,1.3,0.8c0.5,0.7,0.4,1.3,0.2,1.9
			l-0.8,3.9c-0.1,0.6-0.3,1.2-1,1.6c-0.4,0.3-1,0.4-1.6,0.2c-0.6-0.1-1.1-0.4-1.3-0.8c-0.5-0.7-0.4-1.3-0.2-1.9L67.6,33.4z
			 M70.6,33.8c0.1-0.2,0.1-0.5-0.1-0.8c-0.1-0.2-0.3-0.3-0.6-0.4c-0.3-0.1-0.5,0-0.7,0.1c-0.3,0.2-0.4,0.4-0.4,0.7l-0.9,4.3
			c-0.1,0.2-0.1,0.5,0.1,0.8c0.1,0.2,0.3,0.3,0.6,0.4c0.3,0.1,0.5,0,0.7-0.1c0.3-0.2,0.3-0.4,0.4-0.7L70.6,33.8z"/>
	</g>
	<g>
		<path style="fill:#FFFFFF;" d="M59.8,53.1c-2.9-0.6-4.9-3.4-4.3-6.3c0.6-2.9,3.6-4.6,6.5-4s4.9,3.4,4.3,6.3S62.7,53.7,59.8,53.1z M55.5,65
			l19.4-19.5l2.3,2.3L57.9,67.2L55.5,65z M61.7,44.2c-2.3-0.5-4.3,0.7-4.8,3c-0.5,2.2,0.9,4.2,3.2,4.7c2.3,0.5,4.3-0.7,4.8-3
			S63.9,44.7,61.7,44.2z M61.5,44.7c1.9,0.4,3.1,2.1,2.7,4s-2.1,3-4.1,2.6c-1.9-0.4-3.1-2.1-2.7-4C57.9,45.4,59.6,44.3,61.5,44.7z
			 M58.1,65.1l17-17.1l-0.4-0.4l-17,17.1L58.1,65.1z M60.4,50c1.1,0.2,2.1-0.4,2.4-1.6c0.2-1.1-0.5-2.2-1.5-2.4
			c-1.1-0.2-2.1,0.4-2.4,1.6C58.6,48.7,59.3,49.8,60.4,50z M71,69.8c-2.9-0.6-4.9-3.4-4.3-6.3s3.6-4.6,6.5-4
			c2.9,0.6,4.9,3.4,4.3,6.3S73.9,70.5,71,69.8z M72.9,60.9c-2.3-0.5-4.3,0.7-4.8,3c-0.5,2.2,0.9,4.2,3.2,4.7s4.3-0.7,4.8-3
			C76.6,63.3,75.2,61.4,72.9,60.9z M72.8,61.4c1.9,0.4,3.1,2.1,2.7,4c-0.4,1.9-2.1,3-4.1,2.6c-1.9-0.4-3.1-2.1-2.7-4
			C69.1,62.1,70.9,61,72.8,61.4z M71.7,66.7c1.1,0.2,2.1-0.4,2.4-1.6c0.2-1.1-0.5-2.2-1.5-2.4c-1.1-0.2-2.1,0.4-2.4,1.6
			C69.9,65.4,70.6,66.5,71.7,66.7z"/>
	</g>
	<g>
		<path style="fill:#FFFFFF;" d="M30.2,43c-0.5,2.4-2.2,3.8-4,4.4c2.4,1.5,3.6,3.9,3,6.4c-0.9,4.1-5.7,6.1-11.4,4.9s-9.3-5-8.4-9.1
			c0.5-2.6,2.6-4.2,5.4-4.6c-1.5-1.3-2.4-3.3-1.9-5.7c0.8-3.8,5-6.1,10.1-5C28.1,35.4,31,39.2,30.2,43z M14.9,40.1
			c-0.5,2.5,0.9,4.9,3.9,6c-4.1-0.5-6.6,1.3-7.2,4c-0.7,3.1,2.1,6,6.6,6.9s8.2-0.5,8.9-3.6c0.6-2.7-1-5.4-5-6.6
			c3.1,0.2,5.4-1.4,6-3.9c0.8-3.6-1.6-5.9-5.5-6.8C18.8,35.3,15.7,36.5,14.9,40.1z M12.3,50.2c0.6-3,3.5-4.4,8.1-3.5
			c4.7,1,6.7,3.5,6,6.5c-0.6,2.6-3.8,4.1-8.1,3.2C14,55.5,11.7,52.9,12.3,50.2z M24.3,52.7c0.4-1.7-1.3-3.4-4.3-4.1
			c-3.1-0.7-5.2,0.3-5.6,2s1.3,3.4,4.3,4.1C21.8,55.3,24,54.3,24.3,52.7z M15.6,40.2c0.7-3.4,3.5-4.2,7-3.5s5.6,2.6,4.9,6
			c-0.6,2.7-3.6,4.1-6.9,3.4C17.1,45.5,15,42.9,15.6,40.2z M25.3,42.3c0.4-1.7-1-3.3-3.2-3.7c-2.2-0.5-4,0.4-4.4,2.1
			c-0.4,1.7,1,3.3,3.2,3.7C23.1,44.9,24.9,44,25.3,42.3z"/>
		<path style="fill:#FFFFFF;" d="M30.5,61.1l0.7-3.1c2.9-1.2,6-2.8,9.6-5c3.1-1.9,4.3-3.4,4.8-5.5c0.5-2.5-1.1-4.1-4.3-4.8
			c-1.8-0.4-4-0.3-5.7,0.2l-0.7-4.2c2.3-0.7,5.2-0.7,7.9-0.1c5.8,1.2,8.6,5,7.6,10c-0.7,3.5-2.7,5.5-6.7,7.8c-1.6,1-3.2,1.6-4.8,2.2
			l9.4,2l-0.9,4.1L30.5,61.1z M46,62.5l0.1-0.6L34,59.3c2.4-0.9,5.7-2.5,8.9-4.4c3.2-2,4.8-3.8,5.4-6.8c0.9-4.1-1.4-6.8-6.2-7.8
			c-1.6-0.3-3.3-0.5-5-0.2l0.1,0.7c1.5-0.3,3.2-0.2,4.8,0.1c4.7,1,6.4,3.5,5.7,7c-0.6,2.6-2.1,4.7-5.3,6.6c-3.3,2-6.6,3.6-9.5,4.6
			l-0.1,0.5L46,62.5z"/>
	</g>
</g>
</svg>
