<svg viewBox="0 0 268.9 117.6">
<style type="text/css">
	.st0{fill:#443B38;}
</style>
<g>
	<path class="st0" d="M64,117.1l-1.7-3.2C97,95.1,179,74.8,268.4,72.5l0.1,3.6C179.6,78.5,98.4,98.5,64,117.1"/>
	<path class="st0" d="M62.8,114.1l1.4,2.5c34.5-18.6,115.5-38.5,204-40.8l-0.1-2.9C179.1,75.2,97.6,95.3,62.8,114.1 M63.9,117.6
		l-2.1-3.9l0.3-0.2c34.8-18.9,116.8-39.2,206.3-41.4l0.4,0l0.1,4.4l-0.4,0c-88.8,2.3-170,22.3-204.3,40.9L63.9,117.6z"/>
	<path class="st0" d="M94.8,40.1c0.1-0.3,0.3-0.6,0.3-0.8l0.6-0.2c0.3-0.1,0.6-0.1,0.8-0.1l0,0.1l0.1,0.1c0.4,0.3,1,0.4,1.5,0.4
		l-0.2,0C96.9,39.9,95.8,40,94.8,40.1 M85.7,40.9c0.5-0.1,1-0.3,1.5-0.4c0.9-0.2,1.8-0.5,2.7-0.6l0.4,0.1l0.1,0l0.1,0l0.5-0.2
		c0.2,0,0.4,0,0.6,0c-0.2,0.3-0.4,0.7-0.6,0.8C89.3,40.6,87.5,40.7,85.7,40.9 M88.9,43.4c-0.4,0.6-1.2,1.5-1.7,2.1
		c-0.2,0.3-0.4,0.7-0.6,0.9c-1,1.2-2.1,2.3-3.1,3.2c-0.3,0.3-0.7,0.6-1.1,0.9l-0.6,0.4c0.3-0.6,0.6-1.1,0.9-1.7l0.3-0.6
		c0.6-1.2,1-2.4,1.4-3.7c0.1-0.5,0.3-1,0.5-1.5c0.7-0.1,1.5-0.1,2.2-0.2C87.7,43.5,88.3,43.5,88.9,43.4 M71.7,49.3
		c0.8-1.2,2.3-2.6,3.3-3.3c0.2-0.1,0.4-0.2,0.6-0.3c0.3-0.1,0.6-0.2,0.8-0.4l0.5-0.4c0.5-0.4,0.9-0.7,1.4-0.9l0.2,0L79,44
		c0.2,0,0.4,0.1,0.6,0.1h0.1c0.6-0.1,1.2-0.1,1.9-0.2l0.2,0l-0.1,0.4c-0.2,1.2-1,3-2.3,5.2l-0.1,0.4c-0.1,0.3-0.2,0.5-0.3,0.8
		c-0.2,0.4-0.4,0.9-0.7,1.4c-0.3,0.6-0.6,1.2-0.9,1.7c-0.1,0.3-0.3,0.5-0.4,0.8l-0.1,0.3c-1,1-2.1,1-3.6,0.9c-0.6,0-1.3-0.1-1.8-0.6
		C70.2,54,70.3,51.4,71.7,49.3 M72.2,44.5L72,44.6l-0.3,0.2c-1.2,1.1-2.1,2.4-3.2,4.1c-1.6,2.5-0.8,6.4,0.2,7.5
		c0.5,0.6,1.4,1.3,2.1,1.8c0.5,0.3,1.3,0.5,2.3,0.5c0.6,0,1.2-0.1,1.8-0.1c-0.5,1.1-1.3,2.2-2,3.1c-0.2,0.3-0.5,0.6-0.7,0.9
		c-2,3.1-3.9,5.5-5.6,7.7c-0.3,0.4-0.7,0.9-1.2,1.3c-0.4,0.4-0.8,0.8-1.1,1.2c-1.1,1.3-2.2,2.5-3.4,3.5c-0.6,0.6-1.2,1.1-1.8,1.7
		c-1.7,1.8-3.5,3.2-5.3,4.6l-1,0.8c-4.9,3.9-9.9,6.7-16.6,9.4c-0.5,0.2-1,0.5-1.5,0.7c-0.7,0.3-1.3,0.7-2,0.9
		c-1.2,0.4-2.3,0.6-3.5,0.9c-0.8,0.2-1.6,0.4-2.4,0.6c-3.2,0.9-7.1,1.3-11.1,1.3c-1.4,0-2.8-0.1-4.1-0.2c-4-0.4-6.8-2.9-8.1-4.9
		c-0.6-1-0.7-2-0.8-3.2c0-0.3-0.1-0.6-0.1-0.9c-0.6-4.1,2-11.1,4.8-14.8c0.1-0.2,0.2-0.5,0.4-0.7c0.1-0.2,0.2-0.5,0.3-0.6l0.4-0.5
		c0.4-0.5,0.8-1,1-1.4c0.2-0.2,0.3-0.4,0.3-0.6c0.1-0.2,0.2-0.4,0.3-0.5l0.2-0.2l0.3-0.2l0.1-0.1c0.2-0.3,0.4-0.5,0.5-0.8
		c0.2-0.3,0.4-0.6,0.7-1c0.2-0.1,0.3-0.3,0.6-0.4c5.9-7,14.6-12.2,26.7-15.8c0.8-0.2,1.7-0.4,2.5-0.6c0.8-0.2,1.5-0.3,2.3-0.5
		c4.2-1.2,8.6-1.9,12.4-2.6l0.7-0.1c0.7-0.1,1.4-0.2,2.1-0.3l0.1,0l0.2-0.1l0.2-0.1c1.1-0.1,2.1-0.2,3.2-0.4c1-0.1,2-0.3,3.1-0.3
		l0.3-0.1l0.5-0.1c0.4,0,0.7,0,1,0h0.4c0.5,0,0.9,0,1.4,0c0.3,0,0.6-0.1,0.9-0.2c0.4-0.1,0.7-0.2,1-0.2L72.2,44.5z M172.4,39.1
		c-0.3,0.2-0.6,0.4-0.9,0.5c-0.6,0.2-1.2,0.4-1.8,0.6c-0.5,0.2-1,0.4-1.6,0.6l-0.5,0.1c-0.3,0-0.6,0.1-0.9,0.3
		c-0.3-0.2-0.6-0.6-0.8-1c-0.1-0.2-0.3-0.5-0.5-0.7l-0.3-0.4c-0.8-1-1.7-2.1-1.8-3.2c-0.6-4.3,1.8-8.4,4.2-10.5
		c0.3-0.1,0.5-0.3,0.8-0.4c2.6-1.8,6.9-2.5,9.8-2.5c0.8,0,1.7,0.1,2.5,0.2l0.5,0.1l0.4,0.1c0.2,0.1,0.5,0.2,0.7,0.2h0
		c0.2,0.2,0.4,0.3,0.7,0.5c0.4,0.2,0.7,0.4,0.9,0.7c1.2,1.7,0.6,5.3-1.3,7.7c-2.3,2.9-6.6,5.6-9.4,6.7
		C173,38.7,172.7,38.9,172.4,39.1 M198.2,50L198.2,50c-0.4-0.3-0.7-0.4-1.3-0.4c-0.3,0-0.6,0-0.9,0.1l-0.4,0c-0.4,0-0.8,0-1.2,0
		c-0.4,0-0.9-0.1-1.3,0c-0.4,0-0.7,0.1-1.1,0.1c-0.7,0.1-1.4,0.1-2.2,0.1c-0.4,0-0.7-0.1-1-0.2c-0.3-0.1-0.6-0.1-1-0.2
		c-2.9-0.3-7.4-0.7-10.6-2.4c-0.5-0.3-1-0.5-1.5-0.6c-0.5-0.2-1-0.4-1.4-0.6l-0.1,0c-0.3-0.1-0.6-0.2-0.9-0.3
		c-1.1-0.5-2.7-1.2-3.8-2c0.5-0.2,1-0.4,1.5-0.5c0.3-0.2,0.6-0.3,0.9-0.4c0.2-0.1,0.5-0.3,0.6-0.4c0.3-0.1,0.5-0.1,0.8-0.2l0.5-0.2
		l0.1-0.1l0.3-0.2l0.9-0.6c0.6-0.3,1.1-0.6,1.7-0.9c3.4-1.6,5.7-3.4,8.1-6.4c2.8-3.4,3.3-8.5,1.1-11.3c-0.8-1.1-2.4-1.7-3.9-2.2
		l-0.1,0l-0.1,0c-0.4,0.1-1.1-0.1-1.9-0.2c-0.6-0.1-1.2-0.3-1.6-0.3l-0.4,0.1l-0.3,0.1c-0.5,0.1-1,0.1-1.5,0.1c-0.6,0-1.3,0-2,0.2
		c-2.4,0.5-5.8,1.2-8.1,2.8c-0.9,0.6-1.6,1.4-2.3,2.2l-0.4,0.5c-1.1,1.3-2.9,4.5-3.1,6.8c-0.1,1.4-0.1,2.7,0,4
		c0.2,1.6,1.7,3.8,2.6,5.2l0.2,0.3l0.3,0.4c-0.3,0.1-0.7,0.1-1,0.2c-1.9,0.4-3.9,0.7-6,0.7c-0.5,0-1,0-1.5-0.1
		c-0.4,0-0.7-0.2-1.1-0.3c-0.4-0.1-0.7-0.3-1.2-0.4c-1.6-0.3-2.8-0.8-3.4-1.3c-0.6-0.4-0.9-1.6-0.5-2.6c0.3-0.3,0.5-0.7,0.8-1
		c0.3-0.6,0.4-1.2,0.1-1.8c-0.3-0.5-0.8-0.9-1.5-0.9l-0.1,0c-1,0.1-1.3,1-1.6,1.8c-0.1,0.4-0.3,0.8-0.5,1.1c-0.2,0.3-0.5,0.7-0.8,1
		c-0.2,0.2-0.4,0.4-0.5,0.6c-2.2,2.6-6.8,6.8-10,6.8l-0.4,0c-0.4-0.3-0.8-0.5-1.2-0.7c0-0.3-0.1-0.6-0.2-0.8
		c-0.1-0.3-0.2-0.5-0.2-0.8c-0.1-1.2,0.6-2.7,1.2-3.5c0.2-0.2,0.5-0.5,0.8-0.8c0.2-0.3,0.4-0.6,0.6-0.9c0.4-0.6,0.8-1.2,1.3-1.8
		c0.7-0.8,2.1-2.5,1.3-3.4c-0.2-0.3-0.6-0.4-1.1-0.6l-0.2-0.1l-0.1,0c-0.8,0.2-1.2,0.8-1.6,1.4c-0.1,0.2-0.3,0.5-0.5,0.7
		c-0.2,0.3-0.5,0.5-0.8,0.8c-0.3,0.3-0.5,0.5-0.7,0.8c-0.2,0.3-0.4,0.5-0.5,0.8c-0.1,0.2-0.2,0.4-0.4,0.6c-1.7,2.2-3.9,4.4-6.7,6.9
		c-0.3,0.3-0.6,0.5-0.9,0.8c-0.7,0.6-1.3,1.2-2.1,1.6c-0.2,0.1-0.5,0.3-0.8,0.5c-1,0.7-2.7,1.8-3.6,1.8l-0.3,0
		c-0.4-0.3-0.2-1.6,0.3-2.5c0.2-0.3,0.3-0.7,0.5-1c0.1-0.4,0.3-0.8,0.5-1.1c0.2-0.3,0.5-0.7,0.7-1c0.3-0.3,0.5-0.6,0.7-0.9
		c0.3-0.4,0.5-0.9,0.8-1.4c0.3-0.5,0.5-1.1,0.8-1.5c0.5-0.6,1.3-3.3,0.9-4c-0.4-0.6-1.5-0.7-1.9-0.6c-0.7,0.2-1.6,0.8-2.4,1.5
		c-0.5,0.4-1,0.7-1.4,1c-0.7,0.4-1.3,1-1.9,1.5c-0.3,0.3-0.7,0.7-1.1,1c-0.9,0.8-1.9,1.6-2.7,2.4c-1,0.9-2,1.9-3,2.7l-0.1,0.1
		l-0.4,0.5l-0.4,0.5c-0.8,0.7-3,2.4-4.5,3c0.4-1.6,1.2-2.8,2.1-4.2l0.2-0.4c0.2-0.3,0.3-0.7,0.5-1l0.7-0.5c0.4-0.4,0.6-0.8,0.7-1.3
		c0.2-0.4,0.3-0.7,0.5-1l0.2-0.3c0.4-0.5,0.8-1,1.1-2l0-0.3l-0.1-0.1c-0.4-0.7-0.9-1-1.4-1c-0.9,0-1.5,1-2,1.8l-0.3,0.5
		c-0.3,0.4-0.6,0.8-1,1.2c-0.2,0.2-0.3,0.4-0.5,0.6c-0.2,0.3-0.3,0.6-0.5,0.9c-0.2,0.3-0.3,0.6-0.5,0.8c-0.6,0.7-1.1,1.5-1.5,2.3
		c-0.2,0.4-0.5,0.8-0.7,1.2c-0.9,1.3-2,3-3.1,4.2c-1.4,1.6-3.5,3.6-5,4.4c-0.3,0.1-0.6,0.2-0.9,0.4c-0.3,0.1-0.6,0.2-0.8,0.3
		c-1.1-0.7-1.5-1.9-1.7-2.9c-0.4-2.7,0.7-6.4,2.6-8.4c0.3-0.5,0.7-0.9,1-1.4l0.5-0.1l0.6,0l0.4,0l0.2,0c0.8-0.1,1.8-0.3,2.5-0.4
		c0.3,0,0.6-0.1,0.9-0.1c0.3,0,0.5,0,0.9-0.1c0.4-0.1,0.7-0.2,1.2-0.2c1.1-0.2,2.4-0.4,3-2l0-0.1l-0.1-0.1c-0.9-2.3-4.1-3-5.9-3.2
		c-0.6-0.1-1.3,0-2,0.1c-0.4,0-0.7,0.1-1,0.1c-1.9,0.1-3.5,0.3-5.3,0.5l-1.2,0.2l-1.4,0.4c0.6-4.2-0.1-8.1-2-10.9
		c-0.1-0.2-0.3-0.4-0.4-0.6c-0.3-0.5-0.5-0.9-0.9-1.3c-0.8-0.7-1.8-1.6-2.9-2.3c-0.5-0.2-1-0.5-1.4-0.7c-1.6-1.2-6.4-2.7-8.4-2.7
		c-0.8,0-1.6-0.1-2.3-0.1c-1-0.1-1.9-0.2-2.9-0.1c-1.1,0-2.1,0.1-3.2,0.2c-1.4,0.1-2.9,0.2-4.4,0.3c-0.4,0-0.8,0.1-1.1,0.2
		c-0.2,0.1-0.5,0.1-0.7,0.1c-0.4,0-0.7,0.1-1.1,0.1c-0.5,0-1,0-1.7,0.2l-0.2,0.1l-0.6,0.3c-5.2,0.7-9.5,2.3-13.9,4.1
		c-1.8,0.7-3.3,1.9-4.8,3.1c-0.3,0.2-0.6,0.4-0.9,0.7c-1,0.7-2,1.4-2.8,2.5c-0.2,0.3-0.4,0.5-0.5,0.7c-1,1.3-1.9,2.5-1.2,4.7
		l0.1,0.2l0.2,0.1l0.5,0.2l0.1,0l0.1-0.1c0.8-0.3,1-1,1.2-1.7c0.1-0.4,0.2-0.8,0.4-1.1c0.2-0.4,0.4-0.6,0.8-1
		c1.1-1.3,2.3-2.3,3.5-3.1l0.6-0.2l0.2-0.1c0.7-0.6,1.8-1.5,2.6-1.8l0.5,0l0.1,0c0.2-0.1,0.5-0.3,0.7-0.4c0.2-0.2,0.5-0.3,0.7-0.4
		c1.1-0.3,2.1-0.6,2.8-1c0.3-0.1,0.6-0.3,0.9-0.4c0.7-0.3,1.5-0.7,2.3-0.9c3.5-0.8,7.8-1.7,12.7-2c0.8,0,1.6-0.1,2.5-0.2
		c2-0.2,4.3-0.4,6.1-0.2c7.3,0.7,12.1,2.9,14.3,6.5c0.9,1.5,1.6,4,1.6,5.9c0,0.9-0.1,1.7-0.2,2.5c-0.1,0.6-0.2,1.2-0.2,1.9
		c-0.7,0.4-1.6,0.7-2.5,0.9c-0.5,0.1-1,0.3-1.5,0.5c-0.3,0.1-1.2,0.4-1.6,0.8l-0.3,0.3L77,41.4c-0.7,0.2-1.3,0-2,0.1
		c-0.5,0-1,0.1-1.5,0.1c-1.1,0.1-2.3,0.3-3.6,0.3l-0.1,0l-0.6,0.2c-0.6,0-1.2,0-1.8,0.1c-0.3,0-0.6,0.1-1,0.2
		c-0.4,0.1-0.7,0.2-1,0.2c-1.9,0.1-3.7,0.4-5.4,0.7c-0.3,0-0.6,0.1-0.9,0.1c-0.4,0-0.7,0.1-1.1,0.1c-1.7,0.4-3.7,0.8-5.7,1.1l-0.5,0
		c-0.2,0-0.3,0-0.5,0c-0.5,0.1-1,0.2-1.5,0.3c-1.3,0.3-2.7,0.6-4.1,0.9c-1.2,0.2-2.4,0.6-3.6,1c-0.9,0.3-1.9,0.6-2.8,0.8
		c-2.1,0.5-3.9,1.1-5.8,1.7l-0.7,0.2c-0.8,0.4-1.6,0.7-2.3,1.1l-0.2,0.1C23.6,53.4,18,56.8,13.6,61c-0.4,0.4-0.8,0.8-1.1,1.2
		c-0.3,0.3-0.6,0.7-0.9,1c-0.3,0.3-0.7,0.7-1,1.1l-0.5,0.5l-0.4,0.6l-0.2,0.4l-0.1,0.1l-0.4,0.4l0,0.1c-0.1,0.2-0.2,0.5-0.3,0.7
		l-0.1,0.2C6.7,69.4,0.9,77.3,0,85.2c0,0.6,0,1.2,0,1.7c0,0.3,0,0.7,0,0.9c-0.1,2,0.4,4,1.2,5.2c1.1,1.7,2.1,3.2,3.7,4.3
		c1.1,0.8,4.3,2.1,5.9,2.3c0.7,0.1,1.4,0.1,1.9,0.1l1.4,0c0.2,0,0.5,0,0.7,0c0.7,0,1.4,0,2,0c2.4,0,4.5-0.1,6.3-0.4
		c0.3,0,0.6,0,0.9,0.1l0.1,0l0,0c1.3-0.3,2.6-0.6,3.9-0.9l1.4-0.4c0.6-0.2,1.1-0.3,1.7-0.4c0.8-0.2,1.5-0.3,2.3-0.6
		c0.7-0.2,1.4-0.5,2.1-0.8c0.7-0.3,1.4-0.6,2.2-0.9l0.3-0.2c0.2-0.1,0.5-0.3,0.7-0.4c1.3-0.3,2.4-0.9,3.5-1.5
		c0.4-0.2,0.8-0.4,1.1-0.6c2.5-1.2,5.4-2.7,8.1-4.5c0.6-0.4,1.1-0.8,1.6-1.3c0.2-0.2,0.4-0.4,0.6-0.5c0.3-0.2,0.6-0.3,1-0.5
		c0.7-0.5,1.4-1.1,2.1-1.6l0.6-0.5c0.4-0.4,0.8-0.7,1.1-1.1c0.4-0.4,0.9-0.9,1.3-1.3c0.5-0.3,0.9-0.8,1.3-1.2l0.4-0.4
		c0.3-0.2,0.6-0.4,1-0.7c0.3-0.2,0.5-0.5,0.7-0.8c0.2-0.2,0.3-0.4,0.5-0.6l0.5-0.5c0.7-0.6,1.4-1.3,2-2c1.3-1.7,2.7-3.4,4.1-5.1
		c1.1-1.4,2.3-2.8,3.5-4.4c0.1-0.3,0.3-0.6,0.5-0.9c1.2-1.8,2.6-4,3.9-6c0.3-0.6,0.5-1.1,0.8-1.7l0.1-0.2c0.6-0.7,1.8-1.6,2.8-2.2
		c0.4-0.3,0.8-0.6,1.2-0.8c0.4-0.3,0.7-0.6,1-1l0.5-0.5l0.3-0.2l0.5-0.3l0.1-0.1c0.2-0.2,0.4-0.4,0.5-0.7c0.2-0.2,0.4-0.5,0.6-0.7
		c0,0.3-0.1,0.6-0.1,0.9c0.1,1.2,0.4,4,2,5.6c0.8,0.8,1.9,1.3,3.2,1.3c0.5,0,0.9-0.1,1.4-0.2c1.9-0.5,6.5-4.6,8.1-7
		c0.5,0.7,1.2,1,2,1c1.4,0,2.8-1,3.8-1.7l0.2-0.1c1.3-0.9,2.4-1.7,3.3-2.6l0.5-0.5c0.2-0.3,0.5-0.5,0.7-0.7c1.1-0.9,2.6-2.1,3.8-3.3
		c0.9-1,2-1.9,3-2.7c-2.1,3.3-5.2,8.1-2.5,10.6c0.7,0.7,1.5,1,2.4,1c1,0,1.9-0.4,2.7-0.9c3.3-1.7,6-3.7,8.6-6.5l0.5-0.4l0.2-0.1
		c0.1,1.2,0.6,2.3,1.4,3.1c1.3,1.3,3.2,1.8,5.3,1.4l1.2-0.5c0.5-0.3,1.1-0.5,1.6-0.8l0.4-0.3l0.3-0.3c2.3-1.2,4.2-3.1,5.5-4.5
		l0.3-0.3l0.5-0.5c0.9,1.7,3.3,3.1,5.8,3.4c0.5,0.2,1,0.4,1.5,0.6l0.1,0c0.6,0.1,1.2,0.1,1.7,0.1h0.5c0.3,0,0.5,0,0.8,0l0.2,0
		c0.2,0,0.3,0.1,0.6,0.1c0.8,0,1.6-0.2,2.4-0.4c0.2-0.1,0.5-0.1,0.7-0.1l1-0.1c0.6-0.1,1.2-0.1,1.9-0.2c0.3-0.1,0.6-0.2,0.9-0.3
		c0.5-0.2,1-0.4,1.5-0.4h0c0.3,0.1,1.1,0.7,1.4,0.9l1.1,0.7c0.6,0.4,1.3,0.7,2,1.1l0.4,0.1l0.3,0.1l0,0c0.6,0.4,1.4,0.9,2.2,1.1
		c1.3,0.5,2.6,1,3.9,1.5l2.2,0.8c0.3,0.1,0.5,0.2,0.9,0.3c1.1,0.1,2.1,0.4,3.2,0.6c1.3,0.3,2.6,0.6,3.9,0.7c1.3,0.1,2.7,0,4,0
		c0.4,0,0.8,0,1.2,0c1.8,0,4.8-0.2,5.5-0.9l0.1-0.1l0.2-0.6l0-0.2l-0.2-0.3L198.2,50z"/>
	<path class="st0" d="M166.7,10.5l0.2,0c0.1,0,0.3-0.1,0.5-0.2l0.2-0.1l0.4-1.1l0-0.1c0-0.3-0.2-0.5-0.3-0.7l-0.1-0.1
		c0.5-0.1,1.1-0.1,1.7-0.1c0.3,0,0.5,0,0.7,0c1.4-0.1,3-0.1,4.3-0.1c0.4,0,0.8,0.1,1.1,0.2c0.4,0.1,0.9,0.2,1.4,0.2l0.8,0
		c0.6,0,1.3,0,1.7,0.2l0.2,0l0.1-0.1l0.3-0.1l0.1-0.1l0-0.1l0.2-0.5l0-0.1l0-0.2l-0.1-0.1c-0.2-0.3-0.3-0.5-0.8-0.6l-0.2,0l-0.1,0
		c-0.2,0-1-0.2-1.6-0.3c-0.9-0.2-1.7-0.4-2.1-0.4c-0.6,0-1.3-0.2-1.9-0.3c-1-0.2-2-0.3-2.9-0.3c-1.4,0.1-2.9,0.2-4.7,0.5
		c-1.7,0.3-1.8,1.5-1.8,2C164.4,9,165.7,10.5,166.7,10.5"/>
	<path class="st0" d="M248.8,0.9l-0.6-0.2c-0.5-0.1-0.9-0.3-1.5-0.4C236-0.8,226.9,1,218.6,5.9L218.5,6l-0.2,0.3
		c-1.7,1.4-3.4,3-3.7,5.7l-0.1,0.2l-0.2,0.4l0,0.1c0,0.7,0.2,1.3,0.3,2c0.1,0.4,0.2,0.8,0.3,1.2c0.1,0.7,0.7,2.8,1.9,3.2l0.1,0
		l0.1,0l0.2-0.1l0.3-0.1l0.1-0.2c0.2-0.5,0.1-0.7,0-1l0-0.2l0.1-0.6l0-0.1l-0.2-0.6c-0.1-0.3-0.2-0.7-0.3-1l-0.1-0.3
		c-0.2-1.2-0.5-2.7,0.3-4.1c1.2-2,3.4-3.6,6.5-4.7c0.6-0.2,1.2-0.5,1.7-0.8c0.5-0.2,1-0.5,1.5-0.7c0.7-0.2,1.3-0.4,2.1-0.5
		c0.3-0.1,0.6-0.1,1-0.2l0.2-0.1c0.7-0.2,1.4-0.4,2-0.5l0.3,0c0.6-0.1,1.1-0.1,1.8-0.2c1.1-0.3,3.3-0.7,5.3-0.6
		c1.3,0.1,2.5,0.1,3.8,0.2l1.7,0.1c0.6,0,1.1,0.2,1.7,0.4c0.5,0.2,1.1,0.4,1.7,0.4c1.5,0.2,3.3,1.1,4,1.5c0.3,0.2,0.6,0.4,0.9,0.5
		c1,0.6,1.9,1.1,2.6,1.8c1.5,1.5,2.4,3.9,2.4,6.1c0,6-2.5,13.2-6.3,18.3l-0.3,0.3c-0.2,0.2-0.4,0.4-0.6,0.6
		c-0.3,0.3-0.6,0.7-0.8,1.1c-0.3,0.4-0.5,0.7-0.8,1c-0.2,0.2-0.4,0.4-0.6,0.5c-0.3,0.2-0.5,0.4-0.7,0.7
		c-5.7,6.7-14.4,10.4-20.6,12.4l-0.1,0c-0.4,0.2-0.9,0.4-1.2,0.6c-2.9,0.7-6.2,1.5-9.9,1.5c-0.2,0-0.5,0-0.7,0h-0.1l-0.6,0
		c-0.2,0-0.5,0-0.7,0c-0.9,0-2.1-0.1-2.9-0.7c-1.1-0.8-2.8-2.4-3-3.2c-0.8-3.4,2-8.4,3.9-11.7l0.2-0.4c1.3-2.2,2.8-4.1,4.4-6
		c0.3-0.4,0.7-0.8,1-1.2c2.4-3.1,4.6-5.4,7-7.6c0.4-0.4,0.9-0.8,1.4-1.1c0.4-0.3,0.8-0.6,1.2-0.9c0.4-0.4,0.8-0.7,1.1-1l0.1-0.1
		c0.7-0.4,1.3-0.8,1.9-1.1l0.3,0l0.7,0c0.5-0.1,0.7-0.4,0.8-0.7l0.2-0.2l0.1,0l0.5-0.1l0.1-0.1l0-0.1l0.2-0.6l0.1-0.2l-0.1-0.4
		l-0.1-0.1c-0.2-0.3-0.3-0.4-0.7-0.6c-0.3-0.1-0.5-0.1-0.8-0.1l-0.2,0l-0.1,0.1l0,0.1l-0.6-0.1c-2.6,0-6.1,3.2-8,5.1
		c-0.6,0.6-1.2,1.2-1.9,1.7c-0.7,0.6-1.4,1.3-2.1,1.9c-1.2,1.3-2.4,2.7-3.5,4.1c-0.8,1-1.6,2-2.4,3c-0.8,0.9-1.4,1.9-2,2.9
		c-0.5,0.8-1,1.7-1.5,2.4l-0.1,0.2l-0.1,0.4c-0.1,0.2-0.4,0.6-0.7,1l-0.3,1c-0.3,0.5-0.5,1-0.8,1.5c-0.2,0.3-0.4,0.7-0.6,1.1
		c-1.6,3-2.4,7.8-0.9,10c0.8,1.1,2.1,2.3,3.6,3.2c1.7,1.1,3.9,1.3,5.4,1.3l0.5,0c4.2-0.1,7.5-0.5,10.5-1.3c0.4-0.2,0.8-0.3,1.3-0.5
		l0.6-0.3c6.8-2,13.2-5.4,19.6-10.5l0.2-0.2c0.4-0.4,0.8-0.9,1.2-1.3c2-1.8,3.9-3.9,6.3-7.1c3.8-4.8,6.2-14.1,6-19.3
		C261.4,7.1,256,2,248.8,0.9"/>
</g>
</svg>
